<svg width="145" height="145" viewBox="0 0 145 145" fill="none" xmlns="http://www.w3.org/2000/svg">
<circle cx="72.5" cy="72.5" r="72.5" fill="#F2F4F7"/>
<path d="M108.75 113.281V104.219C108.75 99.4117 106.84 94.8015 103.441 91.4024C100.042 88.0033 95.432 86.0938 90.625 86.0938H54.375C49.568 86.0938 44.9578 88.0033 41.5587 91.4024C38.1596 94.8015 36.25 99.4117 36.25 104.219V113.281M90.625 49.8438C90.625 59.8539 82.5102 67.9688 72.5 67.9688C62.4898 67.9688 54.375 59.8539 54.375 49.8438C54.375 39.8336 62.4898 31.7188 72.5 31.7188C82.5102 31.7188 90.625 39.8336 90.625 49.8438Z" stroke="#101828" stroke-width="9.0625" stroke-linecap="round" stroke-linejoin="round"/>
</svg>
