<svg width="390" height="363" viewBox="0 0 390 363" fill="none" xmlns="http://www.w3.org/2000/svg">
    <g clip-path="url(#clip0_293_14089)">
        <path d="M199.482 359.15C197.587 359.15 195.674 359.12 193.795 359.061L193.838 357.697C196.535 357.781 199.288 357.804 201.998 357.767L202.016 359.133C201.173 359.144 200.328 359.15 199.482 359.15ZM210.232 358.833L210.152 357.47C212.854 357.311 215.589 357.087 218.284 356.805L218.427 358.163C215.711 358.447 212.955 358.673 210.232 358.833ZM185.587 358.621C182.863 358.412 180.11 358.139 177.405 357.806L177.572 356.452C180.256 356.78 182.987 357.052 185.691 357.259L185.587 358.621ZM226.581 357.119L226.376 355.769C229.06 355.362 231.764 354.889 234.412 354.363L234.678 355.702C232.01 356.232 229.285 356.709 226.581 357.119ZM169.27 356.62C166.58 356.163 163.863 355.639 161.198 355.061L161.487 353.726C164.133 354.301 166.828 354.821 169.498 355.273L169.27 356.62ZM242.704 353.914L242.376 352.589C245.01 351.937 247.659 351.217 250.25 350.449L250.638 351.759C248.028 352.533 245.358 353.258 242.704 353.914ZM153.206 353.132C150.566 352.429 147.91 351.657 145.311 350.835L145.722 349.534C148.302 350.349 150.938 351.115 153.556 351.811L153.206 353.132ZM258.464 349.239L258.016 347.949C260.573 347.06 263.144 346.1 265.66 345.093L266.166 346.361C263.632 347.375 261.041 348.343 258.464 349.239ZM137.51 348.169C134.947 347.227 132.367 346.21 129.844 345.147L130.374 343.888C132.878 344.943 135.437 345.952 137.982 346.888L137.51 348.169ZM273.71 343.138L273.145 341.895C275.6 340.78 278.068 339.589 280.48 338.356L281.101 339.572C278.671 340.815 276.184 342.014 273.71 343.138ZM122.328 341.777C119.864 340.603 117.39 339.354 114.977 338.064L115.62 336.86C118.015 338.139 120.47 339.379 122.915 340.545L122.328 341.777ZM288.321 335.67L287.645 334.484C289.999 333.141 292.35 331.728 294.63 330.286L295.359 331.44C293.062 332.893 290.694 334.317 288.321 335.67ZM107.807 334.019C105.463 332.624 103.116 331.154 100.831 329.649L101.582 328.509C103.85 330.003 106.179 331.462 108.505 332.845L107.807 334.019ZM302.198 326.891L301.416 325.772C303.633 324.223 305.846 322.601 307.992 320.951L308.824 322.034C306.662 323.696 304.432 325.33 302.198 326.891ZM94.0643 324.968C91.8602 323.367 89.6585 321.69 87.5198 319.982L88.3719 318.915C90.4943 320.609 92.6794 322.274 94.8665 323.862L94.0643 324.968ZM315.224 316.879L314.343 315.835C316.41 314.092 318.466 312.275 320.457 310.434L321.383 311.437C319.378 313.291 317.306 315.122 315.224 316.879ZM81.2106 314.704C79.1579 312.907 77.1185 311.037 75.1495 309.147L76.095 308.161C78.0494 310.037 80.0731 311.893 82.1101 313.678L81.2106 314.704ZM327.29 305.718L326.318 304.759C328.223 302.829 330.108 300.831 331.918 298.822L332.933 299.736C331.108 301.761 329.21 303.773 327.29 305.718ZM69.3491 303.32C67.4657 301.34 65.6057 299.293 63.8207 297.236L64.8522 296.342C66.6235 298.383 68.4692 300.414 70.3385 302.379L69.3491 303.32ZM338.297 293.502L337.242 292.635C338.963 290.541 340.658 288.379 342.28 286.21L343.373 287.028C341.739 289.214 340.031 291.392 338.297 293.502ZM58.576 290.909C56.8847 288.772 55.2194 286.566 53.6261 284.351L54.7343 283.554C56.3156 285.751 57.9682 287.941 59.6469 290.062L58.576 290.909ZM348.149 280.328L347.019 279.561C348.542 277.319 350.034 275.011 351.452 272.701L352.616 273.415C351.186 275.743 349.683 278.069 348.149 280.328ZM48.9819 277.577C47.4939 275.296 46.0376 272.949 44.6531 270.599L45.8293 269.905C47.2035 272.237 48.6488 274.567 50.1254 276.83L48.9819 277.577ZM356.763 266.303L355.568 265.643C356.879 263.271 358.152 260.834 359.354 258.401L360.579 259.007C359.368 261.458 358.084 263.913 356.763 266.303ZM40.6487 263.432C39.3751 261.025 38.1402 258.555 36.9783 256.092L38.2132 255.509C39.3664 257.954 40.5917 260.405 41.8556 262.793L40.6487 263.432ZM364.055 251.54L362.804 250.992C363.893 248.507 364.937 245.962 365.91 243.428L367.185 243.918C366.205 246.472 365.152 249.036 364.055 251.54ZM33.6493 248.594C32.6024 246.081 31.5999 243.511 30.6697 240.953L31.9533 240.486C32.8761 243.025 33.871 245.575 34.9095 248.068L33.6493 248.594ZM369.96 236.156L368.664 235.727C369.516 233.159 370.32 230.535 371.054 227.925L372.369 228.295C371.629 230.924 370.819 233.569 369.96 236.156ZM28.0392 233.164C27.2268 230.561 26.4633 227.903 25.7701 225.261L27.091 224.914C27.7788 227.536 28.5366 230.174 29.3428 232.757L28.0392 233.164ZM374.411 220.331L373.081 220.021C373.692 217.389 374.251 214.702 374.743 212.034L376.085 212.28C375.591 214.97 375.027 217.677 374.411 220.331ZM23.8684 217.262C23.2989 214.595 22.7835 211.878 22.3368 209.185L23.6837 208.96C24.1274 211.634 24.6389 214.33 25.204 216.977L23.8684 217.262ZM377.387 204.164L376.033 203.978C376.401 201.304 376.711 198.577 376.956 195.872L378.316 195.995C378.069 198.721 377.756 201.468 377.387 204.164ZM21.1772 201.046C20.8552 198.342 20.5908 195.589 20.3911 192.863L21.7533 192.763C21.951 195.469 22.2137 198.201 22.5335 200.884L21.1772 201.046ZM378.872 187.793L377.508 187.732C377.629 185.026 377.691 182.281 377.691 179.575H379.057C379.057 182.302 378.995 185.067 378.872 187.793ZM19.9773 184.651C19.9307 182.977 19.907 181.269 19.9067 179.575C19.9067 178.524 19.9157 177.475 19.9337 176.428L21.2993 176.452C21.2813 177.491 21.2723 178.532 21.2723 179.575C21.2726 181.256 21.2963 182.952 21.3423 184.614L19.9773 184.651ZM377.681 177.67C377.653 174.962 377.562 172.218 377.412 169.513L378.775 169.437C378.927 172.163 379.018 174.928 379.047 177.655L377.681 177.67ZM21.6234 168.3L20.2605 168.215C20.4309 165.486 20.6662 162.73 20.9593 160.023L22.3169 160.17C22.0258 162.857 21.7928 165.592 21.6234 168.3ZM376.774 161.38C376.501 158.688 376.162 155.964 375.765 153.283L377.116 153.084C377.515 155.785 377.857 158.529 378.133 161.242L376.774 161.38ZM23.3801 152.082L22.0305 151.873C22.4489 149.171 22.935 146.448 23.4754 143.779L24.8136 144.05C24.2776 146.699 23.7952 149.401 23.3801 152.082ZM374.387 145.243C373.867 142.579 373.279 139.898 372.64 137.273L373.967 136.95C374.611 139.595 375.203 142.297 375.727 144.981L374.387 145.243ZM26.6147 136.093L25.2901 135.76C25.9532 133.116 26.6877 130.449 27.4732 127.834L28.7808 128.226C28.0016 130.822 27.2728 133.468 26.6147 136.093ZM370.528 129.392C369.766 126.792 368.934 124.176 368.055 121.617L369.346 121.173C370.233 123.752 371.071 126.388 371.839 129.008L370.528 129.392ZM31.3157 120.447L30.0274 119.995C30.9349 117.413 31.9148 114.819 32.9396 112.285L34.2059 112.797C33.1886 115.312 32.2162 117.886 31.3157 120.447ZM365.225 113.964C364.229 111.451 363.162 108.929 362.054 106.468L363.299 105.907C364.416 108.387 365.491 110.929 366.495 113.461L365.225 113.964ZM37.4447 105.291L36.2038 104.721C37.3444 102.237 38.5582 99.7464 39.8118 97.3179L41.0254 97.944C39.7812 100.354 38.5766 102.826 37.4447 105.291ZM358.542 99.1216C357.319 96.7108 356.024 94.295 354.693 91.9423L355.881 91.2695C357.223 93.6406 358.528 96.0747 359.759 98.5041L358.542 99.1216ZM44.9398 90.7714L43.7562 90.0899C45.1185 87.7245 46.5551 85.3567 48.0263 83.0529L49.1773 83.7878C47.7173 86.0742 46.2913 88.424 44.9398 90.7714ZM350.519 84.9436C349.076 82.6465 347.565 80.3581 346.028 78.1417L347.149 77.3635C348.698 79.597 350.221 81.9027 351.675 84.2175L350.519 84.9436ZM53.7294 77.0071L52.6132 76.2203C54.1875 73.9875 55.8335 71.7621 57.5065 69.6057L58.5853 70.4426C56.9254 72.5829 55.2914 74.7914 53.7294 77.0071ZM341.23 71.5501C339.584 69.3947 337.87 67.2519 336.135 65.1816L337.182 64.3044C338.93 66.3908 340.657 68.5496 342.315 70.7213L341.23 71.5501ZM63.7346 64.1084L62.6951 63.2229C64.4618 61.1478 66.3031 59.0824 68.1678 57.084L69.166 58.0155C67.3157 59.9989 65.4883 62.049 63.7346 64.1084ZM330.755 59.0501C328.921 57.0534 327.018 55.0743 325.1 53.1686L326.063 52.1998C327.995 54.1205 329.912 56.1142 331.761 58.1259L330.755 59.0501ZM74.8674 52.1785L73.9125 51.2023C75.8652 49.2919 77.886 47.4032 79.918 45.5889L80.8275 46.6077C78.8108 48.4081 76.8054 50.2824 74.8674 52.1785ZM319.184 47.5493C317.173 45.7259 315.097 43.9276 313.014 42.2043L313.885 41.1521C315.984 42.8884 318.075 44.7004 320.101 46.5377L319.184 47.5493ZM87.0337 41.3141L86.1715 40.2552C88.2836 38.5352 90.4663 36.8389 92.6594 35.2133L93.4729 36.3102C91.2962 37.9238 89.1297 39.6071 87.0337 41.3141ZM306.608 37.1443C304.439 35.511 302.207 33.9084 299.975 32.3811L300.745 31.2542C302.995 32.7928 305.244 34.4075 307.429 36.0534L306.608 37.1443ZM100.131 31.6066L99.369 30.4737C101.629 28.9528 103.957 27.4635 106.286 26.0462L106.995 27.2131C104.684 28.6193 102.375 30.0977 100.131 31.6066ZM293.129 27.9256C290.822 26.4973 288.452 25.1051 286.086 23.7868L286.75 22.5939C289.135 23.9222 291.522 25.3255 293.848 26.7641L293.129 27.9256ZM114.052 23.139L113.396 21.9408C115.788 20.6322 118.24 19.3627 120.684 18.1668L121.285 19.3936C118.859 20.5802 116.425 21.8401 114.052 23.139ZM278.858 19.9751C276.428 18.7645 273.939 17.595 271.46 16.4991L272.012 15.2502C274.511 16.3544 277.019 17.533 279.467 18.7529L278.858 19.9751ZM128.679 15.9847L128.136 14.7318C130.635 13.6486 133.191 12.6097 135.734 11.6439L136.219 12.9208C133.695 13.8789 131.159 14.9098 128.679 15.9847ZM263.907 13.3665C261.379 12.386 258.791 11.4505 256.215 10.5864L256.65 9.29146C259.245 10.1626 261.853 11.1051 264.401 12.0936L263.907 13.3665ZM143.911 10.2006L143.485 8.90303C146.08 8.05221 148.728 7.25105 151.355 6.52258L151.72 7.83816C149.113 8.56128 146.486 9.35608 143.911 10.2006ZM248.422 8.17022C245.817 7.42775 243.161 6.73628 240.526 6.11517L240.84 4.78625C243.495 5.41204 246.171 6.10884 248.796 6.85665L248.422 8.17022ZM159.63 5.83811L159.326 4.50687C161.986 3.89907 164.697 3.34532 167.381 2.86123L167.624 4.20481C164.959 4.68555 162.27 5.235 159.63 5.83811ZM232.544 4.42685C229.885 3.92776 227.176 3.48369 224.493 3.10693L224.683 1.75469C227.386 2.13442 230.116 2.58184 232.796 3.0846L232.544 4.42685ZM175.684 2.94091L175.503 1.58732C178.206 1.22658 180.956 0.923195 183.674 0.686498L183.793 2.04675C181.095 2.2821 178.367 2.58285 175.684 2.94091ZM216.39 2.15743C213.7 1.90405 210.962 1.70867 208.251 1.57765L208.318 0.213409C211.049 0.34574 213.807 0.542485 216.518 0.797842L216.39 2.15743ZM191.936 1.52297L191.878 0.158733C194.388 0.0540399 196.946 0.000698243 199.482 3.05176e-05L200.1 0.00100307L200.096 1.3666L199.482 1.36559C196.965 1.36626 194.426 1.41928 191.936 1.52297Z" fill="#E6E6E6"/>
        <path d="M199.911 358.218V283.545C199.912 282.499 200.328 281.496 201.068 280.756C201.808 280.016 202.811 279.6 203.857 279.599H212.816C213.862 279.6 214.865 280.016 215.605 280.756C216.345 281.496 216.761 282.499 216.762 283.545V358.218C216.761 359.264 216.345 360.267 215.605 361.006C214.865 361.746 213.862 362.162 212.816 362.163H203.857C202.811 362.162 201.808 361.746 201.068 361.006C200.328 360.267 199.912 359.264 199.911 358.218Z" fill="#2F2E41"/>
        <path d="M182.191 358.218V283.545C182.192 282.499 182.608 281.496 183.348 280.756C184.087 280.016 185.09 279.6 186.136 279.599H195.096C196.142 279.6 197.145 280.016 197.885 280.756C198.624 281.496 199.04 282.499 199.042 283.545V358.218C199.04 359.264 198.624 360.267 197.885 361.006C197.145 361.746 196.142 362.162 195.096 362.163H186.136C185.09 362.162 184.087 361.746 183.348 361.006C182.608 360.267 182.192 359.264 182.191 358.218Z" fill="#2F2E41"/>
        <path d="M217.614 258.892H181.339C179.327 258.892 177.696 260.523 177.696 262.534V303.512C177.696 305.523 179.327 307.154 181.339 307.154H217.614C219.626 307.154 221.256 305.523 221.256 303.512V262.534C221.256 260.523 219.626 258.892 217.614 258.892Z" fill="#2F2E41"/>
        <path d="M138.492 141.573C138.492 141.573 120.185 150.078 104.693 155.718C95.0793 134.016 81.2296 134.829 81.2296 134.829L72.8329 140.61L74.3471 149.282L73.9341 163.46L71.7318 170.893L74.8922 171.464L76.6775 171.788L76.9466 171.544C76.5011 173.309 76.3209 175.131 76.4118 176.949L155.836 164.561C155.836 164.561 153.083 151.76 138.492 141.573Z" fill="#E6E6E6"/>
        <path d="M115.039 253.193L120.364 260.398C121.559 262.016 123.84 262.358 125.457 261.162L185.509 216.781C187.127 215.585 187.469 213.305 186.274 211.687L180.949 204.482C179.753 202.864 177.473 202.522 175.855 203.717L115.803 248.099C114.185 249.295 113.843 251.575 115.039 253.193Z" fill="#0085FF"/>
        <path d="M217.365 202.034L209.451 206.234C207.674 207.177 206.998 209.382 207.941 211.159L242.945 277.118C243.888 278.895 246.092 279.571 247.869 278.628L255.783 274.429C257.56 273.486 258.236 271.281 257.293 269.504L222.289 203.544C221.346 201.767 219.142 201.091 217.365 202.034Z" fill="#0085FF"/>
        <path d="M239.551 231.308L226.626 239.876C224.651 240.925 222.285 240.334 221.342 238.557L207.068 211.659C206.125 209.882 206.962 207.592 208.937 206.544L217.734 201.875C219.709 200.827 222.075 201.418 223.018 203.195L241.42 226.193C242.363 227.97 241.526 230.26 239.551 231.308Z" fill="#CCCCCC"/>
        <path d="M151.472 223.429L159.873 234.585C160.534 235.289 161.447 235.702 162.413 235.733C163.378 235.763 164.316 235.409 165.021 234.748L187.223 213.908C187.928 213.247 188.341 212.333 188.371 211.368C188.402 210.402 188.048 209.464 187.386 208.76L181.255 202.227C180.594 201.523 179.68 201.11 178.715 201.08C177.749 201.049 176.811 201.403 176.107 202.064L151.635 218.28C150.93 218.941 150.518 219.855 150.487 220.821C150.456 221.786 150.811 222.724 151.472 223.429Z" fill="#CCCCCC"/>
        <path d="M219.831 200.961H179.122C177.111 200.961 175.48 202.592 175.48 204.603V291.089C175.48 293.101 177.111 294.731 179.122 294.731H219.831C221.842 294.731 223.473 293.101 223.473 291.089V204.603C223.473 202.592 221.842 200.961 219.831 200.961Z" fill="#CCCCCC"/>
        <path d="M199.238 195.317C217.181 195.317 231.726 180.772 231.726 162.829C231.726 144.887 217.181 130.342 199.238 130.342C181.296 130.342 166.751 144.887 166.751 162.829C166.751 180.772 181.296 195.317 199.238 195.317Z" fill="#0085FF"/>
        <path d="M203.025 173.676C201.018 173.62 198.52 173.55 196.597 172.145C196.024 171.709 195.553 171.154 195.218 170.517C194.882 169.88 194.69 169.177 194.655 168.458C194.62 167.948 194.704 167.436 194.9 166.963C195.096 166.49 195.398 166.068 195.784 165.732C196.788 164.883 198.256 164.682 199.838 165.148L198.199 153.174L199.402 153.009L201.328 167.086L200.324 166.626C199.16 166.091 197.561 165.819 196.568 166.659C196.324 166.878 196.134 167.151 196.013 167.456C195.891 167.76 195.842 168.089 195.868 168.416C195.897 168.951 196.042 169.473 196.291 169.948C196.541 170.422 196.889 170.837 197.313 171.165C198.809 172.258 200.801 172.399 203.059 172.462L203.025 173.676Z" fill="#2F2E41"/>
        <path d="M192.251 154.206H185.712V155.421H192.251V154.206Z" fill="#2F2E41"/>
        <path d="M212.89 154.206H206.351V155.421H212.89V154.206Z" fill="#2F2E41"/>
        <path d="M177.777 137.442C172.511 136.841 168.433 131.796 167.985 126.678C167.453 120.588 170.999 114.804 175.864 111.387C180.953 107.813 187.292 106.321 193.426 105.992C205.391 105.397 217.15 109.273 226.416 116.866C231.012 120.683 235.305 125.546 236.932 131.419C238.344 136.52 237.195 142.298 233.092 145.871C232.078 146.746 230.892 147.402 229.611 147.796C228.33 148.19 226.982 148.315 225.65 148.162C222.467 147.831 219.53 146.158 216.988 144.309C212.042 140.714 207.983 135.705 201.958 133.826C197.54 132.448 191.807 133.661 189.107 137.656C188.495 138.57 188.098 139.612 187.946 140.702C187.89 140.935 187.925 141.18 188.043 141.388C188.161 141.596 188.354 141.751 188.582 141.822C188.815 141.885 189.063 141.853 189.273 141.734C189.483 141.615 189.637 141.418 189.702 141.186C190.411 136.154 196.598 134.277 200.94 135.426C207.27 137.101 211.52 142.75 216.714 146.339C219.444 148.226 222.55 149.735 225.899 150.006C228.787 150.232 231.652 149.352 233.914 147.543C238.351 144.04 240.048 138.014 239.067 132.588C237.931 126.305 233.702 120.92 229.062 116.751C219.655 108.389 207.444 103.877 194.86 104.116C188.441 104.264 181.744 105.589 176.215 108.981C170.851 112.272 166.706 117.777 166.164 124.176C165.687 129.809 168.709 135.7 173.896 138.168C175.12 138.747 176.431 139.117 177.777 139.263C178.939 139.395 178.93 137.573 177.777 137.442Z" fill="#2F2E41"/>
        <path d="M76.6183 170.687L80.4725 169.448C80.8854 168.656 80.1297 169.164 80.4904 168.394C90.2415 147.591 81.2296 134.829 81.2296 134.829L74.258 139.629C74.2409 139.589 74.2268 139.548 74.2094 139.509C74.2094 139.509 72.9706 136.756 71.0435 138.82C71.0435 138.82 77.1001 153.549 70.3552 171.856L78.2013 175.435L81.2295 171.856L81.2984 171.512L75.8788 171.02L76.6183 170.687Z" fill="#CCCCCC"/>
        <path d="M186.531 247.977C155.56 241.094 126.723 255.341 126.723 255.341L126.644 255.271L115.16 245.017L70.2864 171.788L81.2295 171.856C111.65 153.687 154.459 156.164 154.459 156.164C172.904 177.087 186.531 247.977 186.531 247.977Z" fill="#3F3D56"/>
        <path opacity="0.1" d="M126.644 255.271L115.16 245.017L70.2864 171.788L81.2295 171.856C81.2295 171.856 124.845 229.461 126.644 255.271Z" fill="black"/>
        <path d="M131.684 198.133C141.06 195.257 147.179 188.095 145.351 182.135C143.523 176.175 134.44 173.675 125.065 176.551C115.689 179.427 109.57 186.589 111.398 192.549C113.226 198.509 122.309 201.009 131.684 198.133Z" fill="#0085FF"/>
        <path d="M35.8214 136.282C33.3485 145.423 24.8783 151.084 24.8783 151.084C24.8783 151.084 20.4174 141.925 22.8903 132.783C25.3631 123.642 33.8334 117.981 33.8334 117.981C33.8334 117.981 38.2943 127.14 35.8214 136.282Z" fill="#CCCCCC"/>
        <path d="M13.3249 136.282C15.7978 145.423 24.268 151.084 24.268 151.084C24.268 151.084 28.7289 141.925 26.256 132.783C23.7832 123.642 15.3129 117.981 15.3129 117.981C15.3129 117.981 10.852 127.14 13.3249 136.282Z" fill="#CCCCCC"/>
        <path d="M16.9586 134.317C23.7443 140.923 24.5731 151.077 24.5731 151.077C24.5731 151.077 14.4002 150.521 7.61451 143.916C0.828816 137.31 0 127.156 0 127.156C0 127.156 10.1729 127.711 16.9586 134.317Z" fill="#3F3D56"/>
        <path d="M32.1876 134.317C25.4019 140.923 24.5731 151.077 24.5731 151.077C24.5731 151.077 34.7461 150.521 41.5317 143.916C48.3174 137.31 49.1462 127.156 49.1462 127.156C49.1462 127.156 38.9733 127.711 32.1876 134.317Z" fill="#3F3D56"/>
        <path d="M376.362 239.475C373.889 248.617 365.418 254.278 365.418 254.278C365.418 254.278 360.957 245.119 363.43 235.977C365.903 226.836 374.374 221.175 374.374 221.175C374.374 221.175 378.834 230.334 376.362 239.475Z" fill="#CCCCCC"/>
        <path d="M353.865 239.475C356.338 248.617 364.808 254.278 364.808 254.278C364.808 254.278 369.269 245.119 366.796 235.977C364.323 226.836 355.853 221.175 355.853 221.175C355.853 221.175 351.392 230.334 353.865 239.475Z" fill="#CCCCCC"/>
        <path d="M357.499 237.511C364.284 244.116 365.113 254.271 365.113 254.271C365.113 254.271 354.94 253.715 348.155 247.11C341.369 240.504 340.54 230.35 340.54 230.35C340.54 230.35 350.713 230.905 357.499 237.511Z" fill="#3F3D56"/>
        <path d="M372.728 237.511C365.942 244.116 365.113 254.271 365.113 254.271C365.113 254.271 375.286 253.715 382.072 247.11C388.858 240.504 389.686 230.35 389.686 230.35C389.686 230.35 379.513 230.905 372.728 237.511Z" fill="#3F3D56"/>
        <path d="M270.71 361.786H129.88V363H270.71V361.786Z" fill="#3F3D56"/>
    </g>
    <defs>
        <clipPath id="clip0_293_14089">
            <rect width="389.686" height="363" fill="white"/>
        </clipPath>
    </defs>
</svg>
