<svg width="374" height="363" viewBox="0 0 374 363" fill="none" xmlns="http://www.w3.org/2000/svg">
    <g clip-path="url(#clip0_322_14011)">
        <path d="M198.235 275.52C192.682 276.371 188.619 279.926 189.161 283.461C189.704 286.995 194.645 289.169 200.201 288.317C202.424 288.007 204.542 287.169 206.375 285.873L229.861 281.969L228.294 272.685L204.861 276.001C202.723 275.314 200.451 275.149 198.235 275.52Z" fill="#FFB6B6"/>
        <path d="M299.442 246.582L290.335 265.906L244.554 281.318L206.565 283.344L205.614 274.22L246.785 265.612L289.032 245.647L299.442 246.582Z" fill="#E6E6E6"/>
        <path d="M195.573 206.155L194.324 206.182L196.711 314.636L197.96 314.608L195.573 206.155Z" fill="#3F3D56"/>
        <path d="M195.6 254.175C195.487 253.79 192.899 244.643 198.503 235.652L199.563 236.313C194.263 244.814 196.772 253.734 196.798 253.824L195.6 254.175Z" fill="#3F3D56"/>
        <path d="M198.941 236.347C198.941 236.347 197.237 224.701 212.933 221.505C216.203 220.839 219.277 220.384 222.095 220.081C225.422 219.723 226.719 224.277 223.714 225.747C219.362 227.877 215.269 230.561 213.135 233.739C207.25 242.503 198.941 236.347 198.941 236.347Z" fill="#0085FF"/>
        <path d="M197.214 287.851L196.016 287.501C196.042 287.411 198.551 278.491 193.251 269.99L194.311 269.329C199.916 278.32 197.327 287.466 197.214 287.851Z" fill="#3F3D56"/>
        <path d="M193.873 270.023C193.873 270.023 195.577 258.378 179.881 255.182C176.611 254.516 173.537 254.061 170.719 253.758C167.393 253.4 166.095 257.953 169.1 259.424C173.452 261.554 177.545 264.237 179.679 267.415C185.564 276.18 193.873 270.023 193.873 270.023Z" fill="#0085FF"/>
        <path d="M215.719 191.096C218.878 190.263 221.833 188.812 221.735 187.376C221.618 185.67 217.232 184.527 213.448 184.353C216.302 182.12 218.925 179.034 218.123 177.638C217.385 176.354 213.955 176.851 210.791 177.982C212.664 175.304 213.98 172.287 212.978 171.255C211.729 169.969 207.296 172.189 204.27 174.642C204.859 170.82 204.561 165.994 202.847 165.558C201.412 165.193 199.38 167.999 197.986 171.057C197.37 167.848 196.123 164.802 194.683 164.802C192.633 164.802 190.971 170.984 190.971 175.011C190.971 175.239 190.977 175.453 190.988 175.658C190.782 175.419 190.546 175.17 190.277 174.909C187.388 172.103 181.795 168.989 180.367 170.459C179.364 171.492 180.681 174.509 182.554 177.186C179.389 176.056 175.959 175.559 175.222 176.842C174.231 178.567 178.466 182.872 181.908 184.959C181.701 184.934 181.484 184.913 181.252 184.897C177.234 184.623 170.954 185.861 170.814 187.906C170.716 189.342 173.671 190.794 176.83 191.627C173.685 192.809 170.746 194.646 171.013 196.102C171.336 197.869 176.274 198.488 180.157 198.126C177.256 200.908 174.111 205.894 175.424 207.355C176.385 208.425 179.485 207.317 182.284 205.631C180.941 208.711 180.211 212.099 181.441 212.922C183.067 214.01 187.526 210.225 189.877 206.968C189.638 210.952 190.591 216.426 192.483 216.642C193.913 216.806 195.497 213.921 196.473 210.802C197.511 213.998 199.213 217.018 200.679 216.818C202.586 216.557 203.418 210.946 203.062 206.959C205.487 210.082 209.568 213.422 211.108 212.392C212.338 211.569 211.608 208.181 210.265 205.101C213.064 206.787 216.164 207.895 217.125 206.824C218.438 205.363 215.293 200.378 212.392 197.595C216.275 197.957 221.213 197.339 221.536 195.572C221.803 194.116 218.864 192.279 215.719 191.096ZM198.707 202.367C197.895 202.478 197.153 202.636 196.588 203.041C195.988 202.445 195.112 202.264 194.138 202.152C193.047 202.028 192.055 202.016 191.299 202.645C191.023 201.876 190.343 201.33 189.55 200.8C188.869 200.345 188.208 199.97 187.518 199.898C187.464 199.055 186.928 198.338 186.273 197.608C185.855 197.143 185.437 196.727 184.973 196.449C185.642 195.634 185.565 194.604 185.358 193.474C185.21 192.668 185.019 191.933 184.589 191.387C185.157 190.761 185.298 189.877 185.365 188.899C185.438 187.831 185.407 186.862 184.791 186.141C186.384 186.344 187.153 185.351 187.868 184.107C188.276 183.396 188.604 182.712 188.629 182.018C189.467 181.906 190.146 181.323 190.829 180.62C191.413 180.019 191.909 179.424 192.096 178.739C192.765 179.301 193.677 179.386 194.683 179.386C195.664 179.386 196.555 179.305 197.219 178.782C197.734 179.247 198.454 179.489 199.248 179.691C200.006 179.884 200.722 180.013 201.373 179.883C201.61 180.426 202.033 180.919 202.515 181.415C203.198 182.119 203.877 182.702 204.715 182.813C204.74 183.507 205.068 184.192 205.477 184.902C205.957 185.739 206.462 186.462 207.225 186.785C207.136 187.271 207.146 187.806 207.184 188.369C207.251 189.347 207.392 190.231 207.96 190.857C207.53 191.403 207.339 192.137 207.191 192.944C206.984 194.074 206.907 195.104 207.576 195.919C207.112 196.197 206.694 196.613 206.276 197.078C205.621 197.807 205.085 198.524 205.031 199.368C204.341 199.44 203.68 199.814 202.999 200.27C202.068 200.892 201.293 201.537 201.144 202.539C200.446 202.2 199.61 202.244 198.707 202.367Z" fill="#0085FF"/>
        <path d="M196.54 204.312C203.862 204.312 209.798 198.376 209.798 191.054C209.798 183.731 203.862 177.795 196.54 177.795C189.217 177.795 183.281 183.731 183.281 191.054C183.281 198.376 189.217 204.312 196.54 204.312Z" fill="#3F3D56"/>
        <path d="M36.6379 351.826C36.6379 352.238 36.9687 352.568 37.3808 352.568H363.42C363.832 352.568 364.163 352.238 364.163 351.826C364.163 351.414 363.832 351.083 363.42 351.083H37.3808C36.9687 351.083 36.6379 351.414 36.6379 351.826Z" fill="#3F3D56"/>
        <path d="M215.005 319.957L206.829 340.637L196.248 333.423L202.5 311.781L215.005 319.957Z" fill="#FFB6B6"/>
        <path d="M180.858 312.262L159.215 332.942L167.872 342.08L189.996 324.766L180.858 312.262Z" fill="#FFB6B6"/>
        <path d="M303.498 244.93L303.257 243.247L297.726 232.426L279.451 237.235L282.817 252.144L303.498 244.93Z" fill="#FFB6B6"/>
        <path d="M295.803 317.071L296.365 324.295C296.365 324.295 298.688 354.585 279.932 356.989C261.175 359.394 252.999 361.799 241.937 343.042L224.623 312.262L214.51 324.295L201.057 313.705C201.057 313.705 210.676 276.191 218.371 274.748C219.333 274.568 220.295 274.478 221.242 274.458C227.612 274.325 233.618 277.441 237.429 282.547L259.251 311.781L267.187 308.174L295.803 317.071Z" fill="#2F2E41"/>
        <path d="M191.919 339.675L196.248 331.499L208.752 340.156C208.752 340.156 211.638 350.737 207.31 352.18C202.981 353.623 190.958 351.699 190.958 351.699C190.958 351.699 168.834 356.508 168.353 352.18C167.872 347.851 178.453 346.89 178.453 346.89L191.919 339.675Z" fill="#2F2E41"/>
        <path d="M239.052 333.904L205.626 312.843L188.553 328.133L177.01 314.666C177.01 314.666 198.172 283.405 204.424 281.962C210.676 280.52 220.776 279.558 220.776 279.558L251.556 307.933L239.052 333.904Z" fill="#2F2E41"/>
        <path d="M158.735 331.018L169.796 343.042L168.337 344.29C168.337 344.29 165.468 356.789 158.735 352.56C152.001 348.332 151.52 347.37 151.52 347.37C151.52 347.37 132.283 351.699 130.359 344.004C128.435 336.309 133.726 337.752 133.726 337.752L138.529 340.637L158.735 331.018Z" fill="#2F2E41"/>
        <path d="M285.222 242.525C293.722 242.525 300.612 235.635 300.612 227.135C300.612 218.635 293.722 211.745 285.222 211.745C276.722 211.745 269.832 218.635 269.832 227.135C269.832 235.635 276.722 242.525 285.222 242.525Z" fill="#FFB6B6"/>
        <path d="M281.615 249.018L303.738 242.285C303.738 242.285 312.395 262.484 310.952 271.622C309.51 280.76 296.365 324.295 296.365 324.295L267.187 308.174C267.187 308.174 266.706 298.555 265.263 294.226C263.82 289.898 259.251 276.672 269.351 265.61C279.451 254.549 281.615 249.018 281.615 249.018Z" fill="#E6E6E6"/>
        <path d="M65.5622 97.3693L64.3143 97.3967L69.9326 352.715L71.1805 352.687L65.5622 97.3693Z" fill="#3F3D56"/>
        <path d="M67.2819 210.16C67.2179 209.942 61.0285 188.088 74.0234 167.242L75.0829 167.902C62.3806 188.279 68.4174 209.596 68.4799 209.809L67.2819 210.16Z" fill="#3F3D56"/>
        <path d="M74.3373 168.428C74.3373 168.428 70.3263 141.013 107.277 133.489C114.975 131.921 122.212 130.85 128.846 130.136C136.677 129.294 139.731 140.013 132.657 143.476C122.412 148.49 112.775 154.807 107.752 162.289C93.8987 182.922 74.3373 168.428 74.3373 168.428Z" fill="#0085FF"/>
        <path d="M69.4613 289.44L68.2634 289.089C68.3256 288.876 74.3508 267.539 61.6603 247.182L62.7199 246.521C75.7148 267.367 69.5253 289.222 69.4613 289.44Z" fill="#3F3D56"/>
        <path d="M62.406 247.708C62.406 247.708 66.417 220.293 29.4663 212.769C21.7682 211.201 14.5312 210.13 7.8972 209.416C0.0664948 208.573 -2.98805 219.293 4.08601 222.755C14.3308 227.769 23.968 234.087 28.991 241.568C42.8446 262.202 62.406 247.708 62.406 247.708Z" fill="#0085FF"/>
        <path d="M113.835 61.9013C121.272 59.9402 128.228 56.5232 127.997 53.1428C127.723 49.1271 117.397 46.4364 108.489 46.027C115.208 40.7703 121.382 33.5036 119.494 30.2172C117.758 27.1958 109.683 28.3661 102.234 31.0272C106.642 24.7242 109.742 17.6217 107.381 15.1911C104.441 12.1634 94.0048 17.3893 86.8827 23.1658C88.2692 14.1665 87.5683 2.80703 83.5319 1.77929C80.1552 0.919501 75.3693 7.52743 72.0881 14.7257C70.638 7.17168 67.7022 0 64.314 0C59.4873 0 55.5745 14.5526 55.5745 24.0336C55.5745 24.5696 55.5887 25.0741 55.6132 25.5561C55.1287 24.9944 54.5735 24.4077 53.9404 23.7927C47.1389 17.1874 33.9732 9.85582 30.6105 13.3183C28.25 15.749 31.3495 22.8514 35.7582 29.1545C28.3084 26.4934 20.2338 25.323 18.4981 28.3444C16.1659 32.4042 26.135 42.5386 34.2384 47.4534C33.7513 47.3947 33.2395 47.3453 32.6948 47.3081C23.2358 46.6627 8.45062 49.5758 8.12204 54.3913C7.89137 57.7717 14.8466 61.1887 22.2842 63.1498C14.8793 65.9333 7.96102 70.2583 8.58897 73.6857C9.35107 77.8455 20.9754 79.3017 30.1153 78.4494C23.2872 85.0006 15.8832 96.7367 18.9731 100.176C21.2374 102.697 28.5343 100.088 35.1229 96.1184C31.9608 103.37 30.2435 111.346 33.1397 113.283C36.9673 115.844 47.4645 106.933 52.999 99.2649C52.4351 108.646 54.6796 121.533 59.1332 122.041C62.4995 122.426 66.23 115.633 68.5279 108.293C70.9712 115.817 74.9763 122.925 78.4288 122.454C82.9182 121.841 84.8755 108.632 84.038 99.2442C89.7469 106.596 99.3548 114.459 102.979 112.035C105.876 110.097 104.158 102.121 100.996 94.8699C107.585 98.8393 114.882 101.448 117.146 98.9277C120.236 95.4882 112.832 83.7521 106.004 77.2009C115.144 78.0532 126.768 76.597 127.53 72.4372C128.158 69.0098 121.24 64.6849 113.835 61.9013ZM73.7868 88.4352C71.8749 88.6961 70.1268 89.0687 68.7973 90.02C67.385 88.618 65.3222 88.191 63.0286 87.9291C60.4605 87.6358 58.1268 87.6075 56.3471 89.0895C55.6959 87.2795 54.0947 85.9936 52.2295 84.7459C50.6256 83.673 49.0703 82.7924 47.4443 82.6226C47.3173 80.6366 46.0568 78.9487 44.5141 77.2314C43.5304 76.1364 42.5463 75.1575 41.4542 74.5027C43.0298 72.5843 42.8481 70.1596 42.3606 67.4986C42.0129 65.6006 41.5611 63.8712 40.5501 62.5866C41.8864 61.1118 42.219 59.0316 42.3761 56.7285C42.5477 54.2138 42.4764 51.9337 41.0249 50.2359C44.7761 50.7131 46.5863 48.3761 48.2689 45.4472C49.2301 43.7741 50.0029 42.1624 50.0616 40.5287C52.0344 40.2667 53.6325 38.8942 55.2407 37.2382C56.6146 35.8236 57.7832 34.4228 58.2222 32.8106C59.7964 34.1335 61.9443 34.3338 64.314 34.3338C66.6225 34.3338 68.7204 34.1436 70.2827 32.9108C71.4956 34.0068 73.1902 34.5753 75.0601 35.0514C76.8451 35.5059 78.5301 35.8099 80.062 35.504C80.6212 36.7815 81.6155 37.9416 82.7511 39.111C84.3593 40.767 85.9574 42.1395 87.9302 42.4014C87.9889 44.0351 88.7617 45.6469 89.7229 47.32C90.8543 49.2894 92.0426 50.9923 93.8399 51.7521C93.6301 52.8961 93.6525 54.1553 93.7429 55.48C93.9 57.7831 94.2326 59.8633 95.5689 61.3381C94.5579 62.6227 94.1061 64.3521 93.7584 66.2501C93.2709 68.9111 93.0892 71.3358 94.6648 73.2542C93.5728 73.909 92.5886 74.8879 91.6049 75.9829C90.0622 77.7002 88.8017 79.3881 88.6747 81.3741C87.0488 81.5439 85.4934 82.4245 83.8896 83.4974C81.699 84.9627 79.8744 86.4816 79.5239 88.8396C77.8801 88.0422 75.9124 88.1452 73.7868 88.4352Z" fill="#0085FF"/>
        <path d="M68.6838 93.0132C85.922 93.0132 99.8963 79.0389 99.8963 61.8008C99.8963 44.5626 85.922 30.5883 68.6838 30.5883C51.4456 30.5883 37.4713 44.5626 37.4713 61.8008C37.4713 79.0389 51.4456 93.0132 68.6838 93.0132Z" fill="#3F3D56"/>
        <path d="M357.067 291.058L355.819 291.085L357.162 352.091L358.41 352.063L357.067 291.058Z" fill="#3F3D56"/>
        <path d="M356.547 318.152C356.482 317.931 354.994 312.672 358.211 307.512L359.27 308.173C356.358 312.844 357.731 317.753 357.745 317.802L356.547 318.152Z" fill="#3F3D56"/>
        <path d="M358.689 308.047C358.689 308.047 357.73 301.497 366.559 299.699C368.399 299.324 370.128 299.068 371.713 298.898C373.584 298.696 374.314 301.258 372.624 302.085C370.176 303.283 367.873 304.793 366.673 306.58C363.363 311.51 358.689 308.047 358.689 308.047Z" fill="#0085FF"/>
        <path d="M357.98 337.095L356.781 336.744C356.796 336.696 358.169 331.787 355.257 327.116L356.316 326.455C359.533 331.615 358.045 336.874 357.98 337.095Z" fill="#3F3D56"/>
        <path d="M355.838 326.99C355.838 326.99 356.796 320.44 347.967 318.642C346.128 318.267 344.399 318.011 342.814 317.841C340.943 317.639 340.213 320.201 341.903 321.028C344.351 322.226 346.654 323.736 347.854 325.523C351.164 330.453 355.838 326.99 355.838 326.99Z" fill="#0085FF"/>
        <path d="M368.126 282.594C369.903 282.125 371.565 281.309 371.51 280.501C371.445 279.542 368.977 278.899 366.849 278.801C368.454 277.545 369.93 275.809 369.478 275.023C369.064 274.301 367.134 274.581 365.354 275.217C366.408 273.711 367.148 272.014 366.584 271.433C365.882 270.71 363.388 271.958 361.686 273.338C362.018 271.188 361.85 268.474 360.886 268.228C360.079 268.023 358.935 269.602 358.151 271.322C357.805 269.517 357.103 267.803 356.294 267.803C355.141 267.803 354.206 271.28 354.206 273.546C354.206 273.674 354.209 273.794 354.215 273.91C354.099 273.775 353.967 273.635 353.815 273.488C352.19 271.91 349.044 270.158 348.241 270.985C347.677 271.566 348.417 273.263 349.471 274.769C347.691 274.134 345.761 273.854 345.347 274.576C344.789 275.546 347.171 277.967 349.108 279.142C348.991 279.128 348.869 279.116 348.739 279.107C346.479 278.953 342.946 279.649 342.868 280.799C342.812 281.607 344.474 282.424 346.251 282.892C344.482 283.557 342.829 284.591 342.979 285.41C343.161 286.403 345.939 286.751 348.123 286.548C346.491 288.113 344.722 290.917 345.46 291.739C346.001 292.341 347.745 291.718 349.319 290.77C348.563 292.502 348.153 294.408 348.845 294.871C349.76 295.483 352.268 293.353 353.59 291.521C353.456 293.763 353.992 296.842 355.056 296.963C355.86 297.055 356.752 295.432 357.301 293.678C357.885 295.476 358.842 297.175 359.666 297.062C360.739 296.916 361.207 293.759 361.007 291.516C362.371 293.273 364.666 295.152 365.533 294.573C366.225 294.11 365.814 292.204 365.059 290.471C366.633 291.42 368.376 292.043 368.917 291.441C369.656 290.619 367.887 287.815 366.255 286.249C368.439 286.453 371.217 286.105 371.399 285.111C371.549 284.292 369.896 283.259 368.126 282.594ZM358.557 288.934C358.101 288.996 357.683 289.085 357.365 289.312C357.028 288.977 356.535 288.875 355.987 288.813C355.373 288.743 354.816 288.736 354.39 289.09C354.235 288.658 353.852 288.35 353.406 288.052C353.023 287.796 352.652 287.585 352.263 287.545C352.233 287.07 351.932 286.667 351.563 286.257C351.328 285.995 351.093 285.761 350.832 285.605C351.208 285.146 351.165 284.567 351.048 283.931C350.965 283.478 350.857 283.064 350.616 282.758C350.935 282.405 351.015 281.908 351.052 281.358C351.093 280.757 351.076 280.212 350.729 279.806C351.626 279.92 352.058 279.362 352.46 278.662C352.69 278.263 352.874 277.877 352.888 277.487C353.36 277.424 353.742 277.097 354.126 276.701C354.454 276.363 354.733 276.028 354.838 275.643C355.214 275.959 355.728 276.007 356.294 276.007C356.845 276.007 357.347 275.961 357.72 275.667C358.01 275.929 358.415 276.065 358.862 276.178C359.288 276.287 359.691 276.36 360.057 276.286C360.19 276.592 360.428 276.869 360.699 277.148C361.083 277.544 361.465 277.872 361.937 277.935C361.951 278.325 362.135 278.71 362.365 279.11C362.635 279.58 362.919 279.987 363.349 280.169C363.299 280.442 363.304 280.743 363.326 281.06C363.363 281.61 363.443 282.107 363.762 282.459C363.52 282.766 363.412 283.179 363.329 283.633C363.213 284.269 363.169 284.848 363.546 285.306C363.285 285.463 363.05 285.697 362.815 285.958C362.446 286.369 362.145 286.772 362.115 287.247C361.726 287.287 361.354 287.498 360.971 287.754C360.448 288.104 360.012 288.467 359.928 289.03C359.535 288.84 359.065 288.864 358.557 288.934Z" fill="#0085FF"/>
        <path d="M357.338 290.028C361.457 290.028 364.796 286.689 364.796 282.57C364.796 278.451 361.457 275.112 357.338 275.112C353.219 275.112 349.88 278.451 349.88 282.57C349.88 286.689 353.219 290.028 357.338 290.028Z" fill="#3F3D56"/>
        <path d="M232.923 350.007C229.323 354.32 228.63 359.674 231.375 361.965C234.121 364.256 239.264 362.616 242.865 358.301C244.327 356.596 245.36 354.567 245.877 352.382L260.902 333.913L253.583 327.99L238.209 345.983C236.151 346.883 234.338 348.263 232.923 350.007Z" fill="#FFB6B6"/>
        <path d="M298.585 258.721L303.814 279.434L278.22 320.402L252.094 346.66L243.625 339.635L269.975 306.849L289.947 264.607L298.585 258.721Z" fill="#E6E6E6"/>
        <path d="M271.034 224.49C274.981 224.481 275.205 224.507 275.844 224.49C280.739 224.361 282.019 222.435 284.501 222.566C288.929 222.801 283.084 245.005 280.653 255.27C278.269 265.338 286.326 274.359 286.905 274.989C295.084 283.883 309.449 285.51 311.914 281.722C313.909 278.656 306.838 273.995 308.548 267.294C310.219 260.743 317.934 261.441 320.09 255.27C322.349 248.808 314.759 245.549 309.99 229.78C307.252 220.725 307.736 219.037 305.181 213.428C298.351 198.436 264.871 204.819 268.63 218.719C269.357 221.407 267.422 224.499 271.034 224.49Z" fill="#2F2E41"/>
    </g>
    <defs>
        <clipPath id="clip0_322_14011">
            <rect width="373.459" height="363" fill="white" transform="translate(0.113525)"/>
        </clipPath>
    </defs>
</svg>
