<svg width="304" height="352" viewBox="0 0 304 352" fill="none" xmlns="http://www.w3.org/2000/svg">
    <g clip-path="url(#clip0_322_14093)">
        <path d="M303.388 312.46H222.037V311.407C243.333 311.407 263.757 302.947 278.816 287.888C293.875 272.83 302.334 252.406 302.334 231.11V174.336H303.388V312.46Z" fill="#F2F2F2"/>
        <path d="M81.4187 107.26C79.256 108.084 77.0477 108.782 74.8046 109.352C71.8417 110.074 70.1688 110.408 67.3091 109.299C67.2086 109.26 67.1127 109.221 67.0223 109.183C61.6018 106.878 56.9682 103.048 53.6855 98.1571C50.4028 93.2665 48.6126 87.5271 48.5328 81.6375C48.5185 81.4355 48.5185 81.2231 48.5185 81.0159C48.5157 80.0177 48.5634 79.02 48.6615 78.0266C48.7868 76.6735 49.0033 75.3304 49.3094 74.0064L49.2808 74.0012C46.9654 71.6337 46.0746 68.3906 46.3699 65.1319C46.5723 62.9227 47.2734 60.7883 48.4205 58.8894C49.5676 56.9905 51.1307 55.3767 52.992 54.1697C55.9091 52.3356 59.1982 51.1746 62.6203 50.7711C63.5391 50.6652 64.4633 50.6116 65.3882 50.6105H74.0779C75.8727 50.1904 77.6959 49.9029 79.5329 49.7505H79.5471C97.0362 48.3 110.828 59.8943 109.542 74.0012C109.532 74.0168 109.518 74.0323 109.509 74.0479C109.137 74.654 108.808 75.229 108.518 75.7782C108.237 76.2911 107.998 76.7832 107.794 77.2495C106.198 80.8553 113.782 136.798 111.062 137.648C109.513 138.13 103.272 96.5009 104.392 104.417C105.802 114.348 89.4757 104.282 81.4187 107.26Z" fill="#2F2E41"/>
        <path d="M107.765 208.389L132.008 260.037L38.7499 250.591L58.2171 201.01L107.765 208.389Z" fill="#FFB6B6"/>
        <path d="M156.431 311.94C140.214 317.338 123.124 319.627 106.058 318.687L98.6371 306.652C98.6371 306.652 98.3263 311.135 97.8629 317.987C89.739 317.045 81.7211 315.345 73.914 312.909C59.1086 308.28 45.2302 301.106 31.1622 294.491C28.3128 277.505 27.2436 251.313 42.997 236.065L127.79 251.602C127.79 251.602 141.394 261.778 137.755 265.423C134.115 269.062 133.552 268.499 135.943 270.89C138.334 273.281 143.501 276.478 143.554 278.569C143.575 279.385 149.374 294.191 156.431 311.94Z" fill="#2F2E41"/>
        <path d="M92.9581 108.587L72.4725 110.016L59.2318 122.811L54.5947 123.638C50.4264 124.382 46.6758 126.628 44.0541 129.953C41.4323 133.278 40.1217 137.449 40.3707 141.675C41.3245 157.836 43.4602 181.982 47.9239 189.816C54.8453 201.963 60.5622 198.152 54.8453 201.963C49.1283 205.775 45.2902 202.78 47.9239 208.803C50.5576 214.826 44.3643 222.552 44.3643 222.552L41.8988 225.018L44.5137 226.089L127.835 236.931C127.835 236.931 120.63 204.539 125.136 196.581C129.642 188.624 140.566 164.57 130.816 155.159L121.283 121.611L104.885 116.775L92.9581 108.587Z" fill="#0085FF"/>
        <path d="M216.967 241.536C215.596 241.493 214.251 241.152 213.025 240.538C211.798 239.923 210.72 239.05 209.865 237.977C209.009 236.905 208.397 235.66 208.07 234.328C207.743 232.996 207.709 231.609 207.971 230.262L168.887 203.793L173.55 191.182L219.741 222.96C221.975 223.569 223.907 224.977 225.172 226.916C226.438 228.855 226.947 231.19 226.605 233.48C226.264 235.77 225.093 237.855 223.317 239.34C221.541 240.824 219.281 241.606 216.967 241.536Z" fill="#FFB6B6"/>
        <path d="M106.574 120.027L100.894 122.276L131.191 181.446L193.909 224.197L202.95 208.917L155.208 167.68L136.094 131.023C133.404 125.864 128.898 121.885 123.446 119.854C117.994 117.823 111.983 117.885 106.574 120.027Z" fill="#0085FF"/>
        <path d="M81.6493 103.383C93.01 103.383 102.22 94.1732 102.22 82.8124C102.22 71.4517 93.01 62.2419 81.6493 62.2419C70.2885 62.2419 61.0788 71.4517 61.0788 82.8124C61.0788 94.1732 70.2885 103.383 81.6493 103.383Z" fill="#FFB6B6"/>
        <path d="M99.5373 74.1138C99.1943 74.2948 98.856 74.4616 98.513 74.6283C98.1557 74.7998 97.7984 74.9714 97.4364 75.1333C90.5522 78.2538 84.9449 78.6016 81.5433 74.1138C81.4502 71.7528 80.9187 69.4297 79.9759 67.263C80.1425 69.6843 79.5044 72.0927 78.1608 74.1138H71.31C64.2544 78.7969 60.6336 83.0989 65.5311 98.4727C65.8503 99.4827 68.0371 135.366 68.6612 138.124C57.98 134.027 48.7663 90.5261 48.5328 79.0637C48.5185 78.8779 48.5185 78.6826 48.5185 78.492C48.5157 77.5738 48.5635 76.6561 48.6615 75.7431C48.7872 74.4967 49.0037 73.2611 49.3094 72.0462L49.2808 72.0414C48.194 71.0024 47.365 69.724 46.8596 68.308C46.3542 66.892 46.1866 65.3775 46.3699 63.8853C48.1617 61.5392 50.3791 59.5513 52.9063 58.0254C55.2042 56.9127 57.5995 56.0132 60.0619 55.3385C60.1239 55.3242 60.1763 55.3099 60.2382 55.2956C60.991 55.0907 61.7627 54.905 62.5345 54.743C64.125 54.4094 65.7331 54.1661 67.351 54.0141C67.4701 54.0093 67.5844 53.9998 67.6893 53.9998C68.3364 54.0002 68.9716 54.1746 69.5282 54.5048C69.533 54.5048 69.533 54.5095 69.5425 54.5095C70.0773 54.8291 70.5209 55.281 70.8304 55.8217C71.14 56.3624 71.3052 56.9736 71.31 57.5966H78.9421C79.2232 57.5966 79.5043 57.6062 79.7853 57.6205C90.414 58.0445 98.9561 62.5895 99.504 73.0371C99.5278 73.3992 99.5373 73.7517 99.5373 74.1138Z" fill="#2F2E41"/>
        <path d="M54.415 74.9408C61.8995 74.9408 67.9669 68.8734 67.9669 61.3889C67.9669 53.9043 61.8995 47.8369 54.415 47.8369C46.9305 47.8369 40.863 53.9043 40.863 61.3889C40.863 68.8734 46.9305 74.9408 54.415 74.9408Z" fill="#2F2E41"/>
        <path d="M73.0204 55.1207C71.4807 62.4452 63.8848 66.8259 56.6179 65.0339C53.1282 64.1734 50.1233 61.9618 48.2643 58.8858C46.4052 55.8097 45.8442 52.1211 46.7047 48.6315C48.4967 41.3646 57.3159 43.4596 63.1072 38.7183C71.2997 32.0111 75.0967 45.2431 73.0204 55.1207Z" fill="#2F2E41"/>
        <path d="M42.9099 259.005C54.46 211.904 77.3454 171.42 115.247 139.702C116.713 137.289 119.078 135.556 121.82 134.884C124.563 134.211 127.46 134.655 129.877 136.116L219.978 190.746C222.391 192.213 224.123 194.577 224.796 197.32C225.468 200.063 225.024 202.96 223.563 205.376C209.097 253.707 187.429 295.645 151.226 324.68C149.76 327.093 147.396 328.826 144.653 329.498C141.91 330.17 139.013 329.727 136.596 328.266L46.4956 273.636C44.0825 272.169 42.3498 269.805 41.6776 267.062C41.0054 264.319 41.4486 261.422 42.9099 259.005Z" fill="#F2F2F2"/>
        <path opacity="0.2" d="M58.9245 274.879C56.5115 273.412 54.7788 271.048 54.1066 268.306C53.4344 265.563 53.8776 262.665 55.339 260.249C66.889 213.148 89.7745 172.664 127.676 140.945C128.647 139.366 130.018 138.071 131.65 137.191L129.877 136.116C127.46 134.655 124.563 134.212 121.82 134.884C119.078 135.556 116.714 137.288 115.247 139.701C77.3455 171.42 54.4601 211.904 42.9101 259.005C41.4487 261.422 41.0055 264.319 41.6777 267.062C42.3499 269.805 44.0825 272.169 46.4956 273.635L136.596 328.266C138.2 329.231 140.03 329.754 141.902 329.784C143.773 329.814 145.619 329.348 147.252 328.434L58.9245 274.879Z" fill="black"/>
        <path d="M164.59 248.564L104.11 212.122C103.149 211.542 102.458 210.604 102.188 209.514C101.919 208.424 102.093 207.272 102.672 206.31C103.252 205.348 104.189 204.656 105.278 204.385C106.368 204.114 107.52 204.287 108.483 204.865L168.963 241.306C169.921 241.888 170.61 242.826 170.878 243.915C171.146 245.003 170.972 246.154 170.393 247.114C169.815 248.075 168.879 248.767 167.791 249.038C166.703 249.31 165.552 249.139 164.59 248.564Z" fill="white"/>
        <path d="M129.406 200.239L116.101 192.222C115.137 191.645 114.441 190.709 114.167 189.619C113.893 188.529 114.063 187.375 114.64 186.411C115.217 185.447 116.153 184.751 117.243 184.477C118.333 184.204 119.487 184.374 120.451 184.951L120.474 184.964L133.779 192.982C134.738 193.563 135.427 194.501 135.696 195.59C135.964 196.679 135.79 197.83 135.211 198.79C134.632 199.751 133.696 200.443 132.608 200.714C131.52 200.986 130.369 200.815 129.406 200.239Z" fill="white"/>
        <path d="M154.977 264.517L94.4975 228.075C93.5356 227.496 92.843 226.559 92.5719 225.469C92.3008 224.379 92.4734 223.226 93.0518 222.264C93.6302 221.301 94.567 220.608 95.6564 220.336C96.7459 220.064 97.8988 220.235 98.8619 220.813L98.8705 220.818L159.35 257.259C160.309 257.841 160.998 258.779 161.266 259.868C161.534 260.956 161.36 262.107 160.781 263.067C160.202 264.028 159.266 264.72 158.179 264.991C157.091 265.263 155.94 265.092 154.977 264.517Z" fill="white"/>
        <path d="M172.27 179.853C182.026 179.853 189.935 171.944 189.935 162.188C189.935 152.432 182.026 144.523 172.27 144.523C162.514 144.523 154.605 152.432 154.605 162.188C154.605 171.944 162.514 179.853 172.27 179.853Z" fill="#3F3D56"/>
        <path d="M141.821 351.473C162.673 351.473 179.577 334.569 179.577 313.717C179.577 292.865 162.673 275.961 141.821 275.961C120.968 275.961 104.064 292.865 104.064 313.717C104.064 334.569 120.968 351.473 141.821 351.473Z" fill="white"/>
        <path d="M141.821 352C134.249 352 126.847 349.755 120.552 345.548C114.256 341.342 109.349 335.363 106.452 328.367C103.554 321.372 102.796 313.675 104.273 306.249C105.75 298.823 109.396 292.001 114.75 286.647C120.104 281.293 126.926 277.647 134.352 276.17C141.778 274.693 149.475 275.451 156.471 278.348C163.466 281.246 169.445 286.153 173.651 292.448C177.858 298.744 180.103 306.145 180.103 313.717C180.092 323.867 176.055 333.597 168.878 340.774C161.701 347.951 151.97 351.989 141.821 352ZM141.821 276.488C134.457 276.488 127.259 278.671 121.137 282.762C115.015 286.853 110.243 292.667 107.425 299.47C104.607 306.273 103.87 313.759 105.306 320.98C106.743 328.202 110.289 334.836 115.495 340.042C120.702 345.249 127.336 348.795 134.558 350.231C141.779 351.668 149.265 350.931 156.068 348.113C162.871 345.295 168.685 340.523 172.776 334.401C176.867 328.278 179.05 321.08 179.05 313.717C179.039 303.847 175.113 294.384 168.133 287.404C161.154 280.425 151.691 276.499 141.821 276.488Z" fill="#3F3D56"/>
        <path d="M136.67 333.367C136.018 333.367 135.375 333.215 134.792 332.924C134.209 332.632 133.701 332.209 133.31 331.687L123.01 317.953C122.678 317.512 122.437 317.009 122.3 316.475C122.163 315.94 122.132 315.384 122.21 314.838C122.288 314.292 122.472 313.766 122.753 313.291C123.034 312.816 123.406 312.401 123.848 312.07C124.289 311.739 124.792 311.498 125.326 311.361C125.861 311.225 126.417 311.195 126.963 311.273C127.51 311.351 128.035 311.536 128.51 311.818C128.984 312.099 129.399 312.472 129.73 312.913L136.468 321.898L153.777 295.936C154.082 295.477 154.476 295.083 154.934 294.776C155.392 294.469 155.907 294.256 156.447 294.147C156.988 294.039 157.545 294.039 158.086 294.146C158.627 294.253 159.142 294.465 159.601 294.771C160.06 295.077 160.454 295.471 160.761 295.929C161.068 296.387 161.281 296.901 161.389 297.442C161.498 297.983 161.498 298.54 161.391 299.081C161.284 299.622 161.072 300.137 160.766 300.596L140.165 331.497C139.792 332.056 139.291 332.517 138.703 332.842C138.115 333.168 137.458 333.347 136.787 333.366C136.748 333.367 136.709 333.367 136.67 333.367Z" fill="#0085FF"/>
        <path d="M263.755 122.386C265.255 122.258 266.399 121.308 266.31 120.264C266.22 119.22 264.932 118.478 263.431 118.607C261.931 118.735 260.787 119.685 260.876 120.729C260.966 121.772 262.254 122.514 263.755 122.386Z" fill="white"/>
        <path d="M280.635 116.66C282.136 116.531 283.28 115.581 283.19 114.538C283.101 113.494 281.813 112.752 280.312 112.88C278.812 113.008 277.668 113.958 277.757 115.002C277.846 116.046 279.135 116.788 280.635 116.66Z" fill="#3F3D56"/>
        <path d="M255.753 109.507C257.253 109.379 258.397 108.429 258.308 107.385C258.219 106.341 256.93 105.599 255.43 105.727C253.929 105.856 252.785 106.806 252.875 107.85C252.964 108.893 254.252 109.635 255.753 109.507Z" fill="#FF6584"/>
        <path d="M248.672 105.357C249.318 105.211 249.671 104.34 249.461 103.412C249.252 102.484 248.558 101.85 247.912 101.996C247.267 102.141 246.913 103.012 247.123 103.941C247.333 104.869 248.026 105.503 248.672 105.357Z" fill="#E6E6E6"/>
        <path d="M243.63 95.2824C244.276 95.1365 244.63 94.2657 244.42 93.3374C244.21 92.4092 243.517 91.775 242.871 91.9209C242.225 92.0668 241.872 92.9376 242.081 93.8658C242.291 94.7941 242.985 95.4283 243.63 95.2824Z" fill="#3F3D56"/>
        <path d="M267.818 109.431C268.464 109.285 268.818 108.414 268.608 107.486C268.398 106.558 267.704 105.923 267.059 106.069C266.413 106.215 266.06 107.086 266.269 108.014C266.479 108.943 267.173 109.577 267.818 109.431Z" fill="#E6E6E6"/>
        <path d="M260.445 115.552C261.091 115.406 261.444 114.535 261.235 113.607C261.025 112.678 260.331 112.044 259.686 112.19C259.04 112.336 258.687 113.207 258.896 114.135C259.106 115.063 259.8 115.698 260.445 115.552Z" fill="#FF6584"/>
        <path d="M273.868 120.537C274.514 120.391 274.867 119.52 274.658 118.592C274.448 117.664 273.754 117.03 273.108 117.176C272.463 117.321 272.109 118.192 272.319 119.12C272.529 120.049 273.222 120.683 273.868 120.537Z" fill="#3F3D56"/>
        <path d="M194.059 44.344C194.317 43.3286 193.342 42.2056 191.882 41.8356C190.423 41.4657 189.031 41.989 188.773 43.0044C188.516 44.0199 189.491 45.1429 190.95 45.5128C192.41 45.8827 193.802 45.3594 194.059 44.344Z" fill="white"/>
        <path d="M176.234 44.229C176.491 43.2136 175.517 42.0905 174.057 41.7206C172.597 41.3507 171.206 41.874 170.948 42.8894C170.691 43.9048 171.666 45.0279 173.125 45.3978C174.585 45.7677 175.977 45.2444 176.234 44.229Z" fill="#3F3D56"/>
        <path d="M197.404 59.1328C197.662 58.1174 196.687 56.9944 195.227 56.6245C193.768 56.2546 192.376 56.7778 192.118 57.7933C191.861 58.8087 192.836 59.9317 194.295 60.3016C195.755 60.6715 197.147 60.1482 197.404 59.1328Z" fill="#FF6584"/>
        <path d="M201.56 64.7093C201.665 63.7635 201.218 62.9372 200.56 62.8637C199.902 62.7902 199.283 63.4973 199.177 64.443C199.071 65.3888 199.519 66.2151 200.177 66.2886C200.835 66.3621 201.454 65.655 201.56 64.7093Z" fill="#E6E6E6"/>
        <path d="M203.025 75.8794C203.131 74.9337 202.683 74.1074 202.025 74.0338C201.367 73.9603 200.748 74.6674 200.643 75.6132C200.537 76.559 200.985 77.3853 201.643 77.4588C202.301 77.5323 202.92 76.8252 203.025 75.8794Z" fill="#3F3D56"/>
        <path d="M184.802 54.5926C184.907 53.6468 184.46 52.8205 183.802 52.747C183.144 52.6735 182.525 53.3806 182.419 54.3263C182.313 55.2721 182.761 56.0984 183.419 56.1719C184.077 56.2454 184.696 55.5383 184.802 54.5926Z" fill="#E6E6E6"/>
        <path d="M193.772 51.2224C193.878 50.2767 193.43 49.4504 192.772 49.3769C192.114 49.3033 191.495 50.0104 191.389 50.9562C191.284 51.902 191.731 52.7283 192.389 52.8018C193.047 52.8753 193.666 52.1682 193.772 51.2224Z" fill="#FF6584"/>
        <path d="M182.721 42.1177C182.826 41.1719 182.379 40.3456 181.721 40.2721C181.063 40.1986 180.444 40.9057 180.338 41.8515C180.233 42.7973 180.68 43.6236 181.338 43.6971C181.996 43.7706 182.615 43.0635 182.721 42.1177Z" fill="#3F3D56"/>
        <path d="M1.35197 138.124H0.298584V0H81.6493V1.05339C60.3531 1.05339 39.9291 9.51325 24.8705 24.5719C9.81184 39.6306 1.35197 60.0545 1.35197 81.3506V138.124Z" fill="#F2F2F2"/>
        <path d="M48.528 259.505C47.1818 258.953 45.9714 258.115 44.9806 257.05C43.9899 255.985 43.2423 254.717 42.7898 253.334C42.3372 251.951 42.1904 250.487 42.3595 249.042C42.5286 247.597 43.0096 246.206 43.7692 244.965L14.7455 204.166L24.0565 193.364L58.1741 242.073C60.1677 243.507 61.566 245.622 62.1041 248.018C62.6422 250.414 62.2827 252.924 61.0937 255.073C59.9047 257.222 57.9688 258.86 55.6529 259.676C53.337 260.493 50.8019 260.432 48.528 259.505Z" fill="#FFB6B6"/>
        <path d="M49.1949 130.216C47.7266 129.352 45.9984 129.04 44.3205 129.335C42.6427 129.63 41.1251 130.514 40.0401 131.828L0.825226 186.672L37.1672 238.288L51.3879 223.014L29.2668 188.252L58.666 160.26C61.0819 154.968 61.4509 148.968 59.7017 143.419C57.9526 137.87 54.2093 133.166 49.1949 130.216Z" fill="#0085FF"/>
    </g>
    <defs>
        <clipPath id="clip0_322_14093">
            <rect width="303.089" height="352" fill="white" transform="translate(0.298584)"/>
        </clipPath>
    </defs>
</svg>
