<svg width="356" height="363" viewBox="0 0 356 363" fill="none" xmlns="http://www.w3.org/2000/svg">
    <g clip-path="url(#clip0_293_14055)">
        <path d="M355.343 362.338C355.343 362.425 355.326 362.511 355.293 362.592C355.26 362.672 355.211 362.745 355.15 362.807C355.088 362.868 355.015 362.917 354.935 362.95C354.854 362.983 354.768 363 354.681 363H1.00572C0.830019 363 0.66151 362.93 0.537269 362.806C0.413028 362.682 0.343231 362.514 0.343231 362.338C0.343231 362.162 0.413028 361.994 0.537269 361.87C0.66151 361.746 0.830019 361.676 1.00572 361.676H354.681C354.768 361.676 354.854 361.693 354.935 361.726C355.015 361.759 355.088 361.808 355.15 361.869C355.211 361.931 355.26 362.004 355.293 362.084C355.326 362.165 355.343 362.251 355.343 362.338Z" fill="#CCCCCC"/>
        <path d="M288.218 16.4C287.781 13.9714 286.701 11.7042 285.089 9.83497C282.797 7.22769 280.013 5.09717 276.897 3.56504C273.781 2.03292 270.393 1.12921 266.927 0.905512C263.462 0.681814 259.986 1.14251 256.698 2.26129C253.411 3.38008 250.376 5.13504 247.767 7.42597L247.544 7.62626C244.43 4.60969 240.634 2.38785 236.478 1.14905C232.323 -0.0897454 227.929 -0.308993 223.67 0.5099C219.411 1.32879 215.413 3.16169 212.014 5.85323C208.614 8.54477 205.915 12.0156 204.143 15.9716C202.515 19.5918 201.769 23.5459 201.965 27.51C202.162 31.474 203.295 35.3351 205.273 38.7768C206.16 40.3286 207.203 41.7863 208.385 43.1275C209.604 44.5184 242.517 81.11 242.846 81.4772C242.885 81.5229 242.934 81.5595 242.988 81.5844C243.043 81.6094 243.103 81.6222 243.163 81.6219C243.174 81.6219 243.191 81.6163 243.208 81.6163C243.231 81.6161 243.254 81.6104 243.274 81.5996C243.383 81.5733 243.477 81.5054 243.536 81.4105L243.709 81.1267L243.915 80.7762L246.96 75.6911C255.405 61.5874 266.79 48.2794 280.803 36.1396C281.705 35.3567 282.541 34.5007 283.302 33.5804C286.3 29.9982 288.11 25.573 288.48 20.9177C288.585 19.4068 288.498 17.8886 288.218 16.4Z" fill="#0085FF"/>
        <path d="M137.217 302.455L143.415 282.281C135.957 274.078 126.608 267.819 116.18 264.046C126.368 280.914 116.496 302.919 120.61 322.188C121.939 328.188 124.602 333.812 128.402 338.644C132.202 343.475 137.041 347.39 142.561 350.099L151.967 361.746C156.898 353.136 159.903 343.56 160.775 333.678C161.646 323.796 160.363 313.843 157.015 304.504C155.084 299.283 152.504 294.326 149.334 289.75C143.744 296.317 137.217 302.455 137.217 302.455Z" fill="#F2F2F2"/>
        <path d="M103.134 305.033L99.6787 284.214C89.3428 280.196 78.1817 278.76 67.1646 280.031C83.8111 290.588 84.7948 314.683 97.0761 330.096C100.943 334.874 105.837 338.721 111.394 341.352C116.951 343.983 123.03 345.33 129.179 345.294L142.796 351.527C143.367 341.623 141.783 331.713 138.153 322.479C134.523 313.246 128.933 304.909 121.768 298.042C117.71 294.23 113.189 290.944 108.309 288.261C106.237 296.63 103.134 305.033 103.134 305.033Z" fill="#F2F2F2"/>
        <path d="M171.182 168.508L169.471 172.486L172.268 186.615L200.802 182.65L200.574 165.421L200.002 161.648L171.182 168.508Z" fill="#FFB6B6"/>
        <path d="M156.44 351.621H162.735L165.731 327.355H156.44V351.621Z" fill="#FFB6B6"/>
        <path d="M174.004 357.619L164.445 351.02V346.71L163.334 346.78L156.44 347.19L154.388 347.31L153.119 362.522H157.633L158.435 358.263L160.499 362.522H172.476C173.049 362.521 173.608 362.338 174.07 361.998C174.532 361.658 174.873 361.179 175.044 360.632C175.214 360.085 175.205 359.497 175.018 358.955C174.831 358.413 174.476 357.945 174.004 357.619Z" fill="#2F2E41"/>
        <path d="M191.801 351.621H198.096L201.8 315.896L189.971 315.189L191.801 351.621Z" fill="#FFB6B6"/>
        <path d="M209.365 357.619L199.807 351.02V346.71L198.595 346.78L191.58 347.202L189.749 347.31L188.48 362.522H192.995L193.796 358.263L195.861 362.522H207.838C208.411 362.521 208.97 362.338 209.432 361.998C209.894 361.658 210.235 361.179 210.405 360.632C210.576 360.085 210.567 359.497 210.38 358.955C210.193 358.413 209.837 357.945 209.365 357.619Z" fill="#2F2E41"/>
        <path d="M153.768 330.695H153.792L155.003 291.239C154.219 289.729 153.822 288.048 153.845 286.347C153.869 284.646 154.313 282.977 155.138 281.489L155.312 281.176L154.862 279.094C154.285 276.419 154.55 273.631 155.62 271.112L156.75 234.307C152.715 208.173 171.945 191.129 171.945 191.129L170.178 177.431L201.281 178.137L200.752 191.129L206.937 212.364C210.192 244.054 210.385 275.1 207.056 305.404C207.049 305.491 207.062 305.579 207.094 305.66C207.432 306.687 207.551 307.773 207.443 308.848C207.335 309.923 207.003 310.964 206.469 311.904C206.33 312.143 206.235 312.405 206.187 312.678C205.501 317.991 205.412 311.271 204.503 316.536L204.679 316.626C205.316 316.845 205.589 317.727 205.29 318.595C204.99 319.463 204.231 319.989 203.594 319.769L186.966 319.947C186.33 319.727 186.056 318.845 186.356 317.977C186.656 317.109 187.415 316.584 188.052 316.803L189.087 317.326L187.356 311.668L186.749 311.102C186.459 310.83 186.233 310.497 186.09 310.126C185.946 309.756 185.888 309.358 185.92 308.962C185.953 308.566 186.074 308.182 186.276 307.839C186.477 307.497 186.754 307.204 187.084 306.984L187.587 290.556L187.832 283.601L187.328 275.712L184.996 240.224L176.169 283.864L167.153 331.134C167.363 331.324 167.521 331.564 167.612 331.832C167.702 332.101 167.722 332.388 167.67 332.666C167.587 333.054 167.371 333.402 167.06 333.649C166.749 333.896 166.361 334.028 165.963 334.02H153.724C153.467 334.02 153.214 333.961 152.984 333.847C152.754 333.733 152.554 333.567 152.398 333.363C152.243 333.159 152.137 332.922 152.088 332.67C152.04 332.418 152.05 332.158 152.118 331.911C152.221 331.556 152.439 331.244 152.737 331.024C153.035 330.804 153.397 330.689 153.768 330.695Z" fill="#2F2E41"/>
        <path d="M164.652 101.369C164.651 103.889 165.269 106.369 166.451 108.594C167.634 110.819 169.345 112.72 171.434 114.129C173.523 115.539 175.926 116.415 178.433 116.68C180.94 116.944 183.473 116.59 185.811 115.648C188.149 114.706 190.219 113.205 191.841 111.276C193.463 109.348 194.586 107.051 195.112 104.587C195.638 102.123 195.551 99.5683 194.858 97.1462C194.166 94.7241 192.889 92.5089 191.139 90.6951L191.065 90.6213C190.942 90.492 190.819 90.3627 190.69 90.2396L190.687 90.2391L190.685 90.2378L190.684 90.2358L190.684 90.2334C190.507 90.1046 190.344 89.9581 190.197 89.7964C188.118 86.8933 185.761 84.4589 180.052 85.9797C171.832 88.1692 164.652 92.8681 164.652 101.369Z" fill="#2F2E41"/>
        <path d="M249.245 94.7813C249.28 95.6047 249.134 96.4257 248.817 97.1865C248.5 97.9474 248.02 98.6295 247.411 99.1849C246.802 99.7402 246.078 100.155 245.291 100.401C244.504 100.647 243.672 100.717 242.855 100.606L203.14 133.179L197.074 122.524L238.02 93.8564C238.296 92.4966 239.062 91.2854 240.172 90.4523C241.282 89.6192 242.66 89.2219 244.044 89.3359C245.427 89.45 246.721 90.0673 247.68 91.0709C248.639 92.0745 249.196 93.3947 249.245 94.7813Z" fill="#FFB6B6"/>
        <path d="M186.371 142.785C186.371 142.785 187.664 145.468 192.696 141.657C196.725 138.607 215.956 125.444 220.228 119.88C221.125 120.285 222.13 120.38 223.087 120.151C224.043 119.922 224.896 119.381 225.511 118.614L215.004 108.504C211.707 108.726 211.673 110.931 211.956 112.197L203.511 115.551L181.518 128.178L185.401 140.863L186.371 142.785Z" fill="#E6E6E6"/>
        <path d="M183.846 117.835C190.977 117.835 196.759 112.057 196.759 104.93C196.759 97.803 190.977 92.0253 183.846 92.0253C176.714 92.0253 170.932 97.803 170.932 104.93C170.932 112.057 176.714 117.835 183.846 117.835Z" fill="#FFB7B7"/>
        <path d="M201.461 168.942L201.594 161.742C202.118 161.023 206.512 154.745 205.527 148.474C205.066 145.521 203.462 143.041 200.773 141.111L199.037 137.073L196.467 131.104L188.948 126.63L187.906 124.51L187.047 122.75L176.674 121.715L174.117 125.154L174.067 125.16C171.717 125.694 169.51 126.727 167.595 128.189C165.493 129.783 163.79 131.841 162.618 134.204C161.445 136.566 160.837 139.168 160.84 141.805L160.903 150.171L160.916 151.37L160.922 152.531L167.393 169.938L167.64 170.614L170.178 177.434L169.742 178.153C169.273 178.936 169.1 179.861 169.254 180.76C169.408 181.659 169.879 182.474 170.582 183.056L170.885 187.321L171.434 187.17L174.559 186.299L198.197 179.705C199.087 179.457 199.873 178.928 200.438 178.197C200.459 178.171 200.478 178.144 200.495 178.115C200.589 177.999 200.671 177.875 200.741 177.743C201.278 176.387 201.335 176.021 201.341 175.642C202.126 174.749 202.579 173.613 202.625 172.425C202.671 171.237 202.307 170.07 201.594 169.118L201.461 168.942Z" fill="#E6E6E6"/>
        <path d="M170.331 108.313C170.448 108.295 170.566 108.27 170.683 108.252C172.697 107.895 174.711 107.544 176.719 107.181L176.904 102.632L179.337 106.707C184.887 108.547 190.08 107.507 194.965 105.211C196.576 104.446 198.139 103.585 199.646 102.632C200.142 94.9378 197.03 90.0124 191.238 90.529C191.026 90.5478 190.875 90.332 190.69 90.2396L190.687 90.2392L190.685 90.2378L190.684 90.2358L190.684 90.2334C190.369 90.0857 190.049 89.9441 189.729 89.8149C187.221 88.8355 184.487 88.5875 181.844 89.0996C179.2 89.6118 176.757 90.8631 174.797 92.7081C170.855 96.4695 169.081 102.681 170.331 108.313Z" fill="#2F2E41"/>
        <path d="M178.745 86.3509C178.616 86.7955 178.361 87.1932 178.01 87.4956C177.659 87.7979 177.228 87.9921 176.769 88.0545C175.033 90.1997 173.044 92.4711 170.323 92.9001C169.545 93.065 168.734 92.925 168.056 92.509C167.974 92.457 167.897 92.3956 167.829 92.326C167.185 91.714 167.135 90.4836 167.898 90.023C164.477 91.3796 162.475 95.0706 161.97 98.7111C161.465 102.352 162.166 106.03 162.627 109.677C163.088 113.324 163.29 117.154 161.857 120.542C160.164 124.536 156.275 127.406 152.033 128.321C151.654 128.403 151.275 128.473 150.89 128.517C150.634 126.785 149.991 125.133 149.009 123.684C149.268 125.361 149.115 127.077 148.56 128.681C145.37 128.637 142.237 127.828 139.425 126.321C135.58 124.296 132.379 121.204 129.759 117.74C134.273 120.939 140.511 122.138 145.422 119.608C149.817 117.337 152.412 112.567 153.548 107.759C154.684 102.945 149.908 97.0466 150.426 92.1315C150.95 87.2165 156.881 83.0448 160.127 79.3159C162.197 76.9372 165.253 75.1769 168.404 75.4734C169.468 75.5747 170.497 75.904 171.422 76.4389C172.347 76.9737 173.146 77.7015 173.765 78.5727C174.383 79.4439 174.806 80.438 175.005 81.4874C175.205 82.5367 175.175 83.6167 174.919 84.6537C175.816 83.3855 178.133 83.6631 178.707 85.108C178.861 85.5058 178.875 85.9444 178.745 86.3509Z" fill="#2F2E41"/>
        <path d="M170.683 108.252C170.683 108.252 174.508 93.9825 190.905 90.689C190.924 90.6829 190.985 90.6583 191.065 90.6214C191.115 90.5906 191.176 90.5598 191.238 90.529C191.053 90.4243 190.875 90.3321 190.69 90.2396L190.687 90.2392L190.685 90.2379L190.684 90.2358L190.684 90.2335C190.523 90.0857 190.363 89.938 190.197 89.7964L189.729 89.8149C189.729 89.8149 173.276 87.211 170.683 108.252Z" fill="#FD6584"/>
        <path d="M211.835 176.252C211.688 175.88 211.442 175.556 211.124 175.315C210.805 175.074 210.427 174.925 210.029 174.885C209.233 174.816 208.431 174.932 207.687 175.224C204.766 176.196 202.144 177.9 200.069 180.173L200.105 181.617C199.131 182.859 198.611 184.396 198.631 185.974C198.652 187.551 199.212 189.075 200.218 190.29C200.786 190.99 201.562 191.492 202.433 191.723C202.869 191.832 203.325 191.821 203.755 191.691C204.185 191.562 204.572 191.319 204.874 190.988C205.747 189.925 205.326 188.325 204.684 187.109C203.564 184.994 201.925 183.198 199.92 181.889C203.267 181.804 206.555 180.987 209.553 179.496C210.217 179.206 210.816 178.786 211.315 178.26C211.562 177.995 211.739 177.672 211.829 177.322C211.92 176.971 211.922 176.603 211.835 176.252Z" fill="#2F2E41"/>
        <path d="M271.854 261.238L265.605 261.485C264.043 264.372 263.209 267.597 263.177 270.879C266.894 266.38 274.015 266.979 279 263.941C280.547 262.981 281.859 261.686 282.837 260.151C283.816 258.616 284.436 256.881 284.652 255.074L286.987 251.305C284.096 250.772 281.123 250.872 278.275 251.597C275.426 252.323 272.768 253.657 270.485 255.508C269.215 256.559 268.082 257.766 267.113 259.1C269.497 260.017 271.854 261.238 271.854 261.238Z" fill="#F2F2F2"/>
        <path d="M240.678 329.114L234.429 329.361C232.867 332.248 232.033 335.472 232.001 338.755C235.718 334.255 242.839 334.855 247.824 331.816C249.371 330.857 250.683 329.562 251.661 328.027C252.64 326.492 253.26 324.757 253.476 322.95L255.811 319.181C252.92 318.648 249.947 318.748 247.099 319.473C244.25 320.199 241.592 321.533 239.309 323.384C238.039 324.435 236.906 325.642 235.937 326.975C238.322 327.893 240.678 329.114 240.678 329.114Z" fill="#F2F2F2"/>
        <path d="M93.4058 233.01L88.1092 229.687C85.1883 231.188 82.678 233.379 80.7964 236.069C86.4071 234.454 91.945 238.968 97.7757 239.274C99.5949 239.356 101.409 239.027 103.084 238.313C104.759 237.598 106.251 236.516 107.451 235.147L111.507 233.354C109.423 231.283 106.913 229.687 104.153 228.678C101.392 227.67 98.4445 227.271 95.5144 227.51C93.872 227.66 92.255 228.016 90.7017 228.57C92.1512 230.673 93.4058 233.01 93.4058 233.01Z" fill="#F2F2F2"/>
        <path d="M249.472 88.0766C249.348 87.2403 250.255 86.6443 250.595 85.8699C250.813 85.1788 250.813 84.4373 250.595 83.7463C250.399 82.8076 250.173 81.8118 249.493 81.1353C248.798 80.5516 247.942 80.1929 247.038 80.1068C244.841 79.7235 242.598 79.6838 240.389 79.9892L242.065 80.0911C241.009 80.0238 239.951 80.1466 238.939 80.4536C238.435 80.6127 237.978 80.896 237.612 81.2774C237.245 81.6587 236.981 82.1259 236.842 82.6361C236.635 83.6697 237.342 84.8805 238.393 84.969C237.868 84.8621 237.322 84.9672 236.875 85.2613C236.427 85.5555 236.114 86.0147 236.004 86.5386C235.895 87.0626 235.997 87.6087 236.289 88.0576C236.58 88.5065 237.038 88.8218 237.562 88.9345C237.32 89.5877 236.6 89.9005 235.985 90.2264C235.369 90.5523 234.72 91.1111 234.824 91.7998C234.962 92.7104 236.18 92.8975 237.1 92.8573L247.123 92.4203C247.986 92.4511 248.843 92.2731 249.623 91.9015C250.366 91.4685 250.884 90.5194 250.541 89.7313C250.275 89.1225 249.57 88.7333 249.472 88.0766Z" fill="#3F3D56"/>
        <path d="M133.235 177.283C131.858 183.331 131.203 190.187 134.877 195.599C136.438 197.92 138.73 199.655 141.389 200.529C144.081 201.327 146.919 201.501 149.688 201.038C155.954 200.171 161.523 196.909 167.685 195.643C170.405 195.084 173.291 194.899 175.909 195.975C177.871 196.781 179.937 198.401 179.946 200.712C179.956 203.085 177.893 204.66 175.842 205.39C173.105 206.364 170.26 205.987 167.421 205.864C164.363 205.732 161.245 206.008 158.705 207.88C156.52 209.584 154.845 211.854 153.861 214.443C152.584 217.54 152.066 220.869 151.25 224.1C150.52 227.005 149.488 229.826 148.17 232.516C145.584 237.788 141.959 242.484 137.512 246.321C135.319 248.208 132.654 250.129 129.659 250.302C127.349 250.435 124.541 249.465 123.651 247.127C123.32 246.117 123.352 245.024 123.742 244.036C124.132 243.047 124.855 242.226 125.786 241.714C127.766 240.716 129.922 242.14 130.562 244.095C130.729 244.545 130.788 245.029 130.733 245.507C130.678 245.984 130.51 246.442 130.244 246.843C129.644 247.737 131.09 248.574 131.686 247.685C133.071 245.622 132.347 242.847 130.651 241.195C129.824 240.352 128.718 239.839 127.54 239.751C126.362 239.663 125.193 240.007 124.25 240.718C123.27 241.463 122.529 242.478 122.118 243.639C121.708 244.799 121.645 246.054 121.938 247.249C122.65 249.818 125.175 251.451 127.697 251.856C130.811 252.356 133.809 251.133 136.323 249.366C138.845 247.546 141.138 245.429 143.153 243.06C147.249 238.353 150.328 232.851 152.198 226.899C154.036 221.012 154.17 213.235 159.632 209.259C162.443 207.213 165.887 207.44 169.182 207.628C172.091 207.794 174.929 207.764 177.598 206.448C179.802 205.361 181.58 203.355 181.617 200.799C181.654 198.219 179.821 196.145 177.661 194.969C171.956 191.864 165.105 194.368 159.5 196.443C153.864 198.529 147.428 200.978 141.438 198.782C138.674 197.709 136.448 195.583 135.249 192.872C133.799 189.798 133.592 186.31 133.927 182.974C134.125 181.208 134.431 179.456 134.846 177.727C135.084 176.681 133.474 176.235 133.235 177.283Z" fill="#3F3D56"/>
        <path d="M160.896 210.937C160.383 210.291 160.018 209.541 159.826 208.74C159.635 207.938 159.621 207.105 159.787 206.297C159.953 205.49 160.294 204.729 160.785 204.067C161.277 203.406 161.909 202.86 162.634 202.469L154.145 177.353L161.077 150.736L172.255 155.786L165.357 175.862L170.518 205.085C171.095 206.347 171.188 207.777 170.781 209.103C170.374 210.43 169.494 211.561 168.308 212.282C167.122 213.003 165.712 213.265 164.346 213.017C162.98 212.769 161.752 212.029 160.896 210.937Z" fill="#FFB6B6"/>
        <path d="M171.127 128.805C171.127 128.805 168.502 127.396 166.676 133.436C165.214 138.271 155.267 164.525 155.087 171.536C154.124 171.736 153.255 172.25 152.617 172.998C151.978 173.745 151.607 174.684 151.561 175.666L166.009 177.664C168.544 175.546 167.273 173.743 166.3 172.885L171.221 164.555L181.506 142.067L173.043 129.789L171.127 128.805Z" fill="#E6E6E6"/>
        <path d="M143.472 160.319C141.821 165.83 139.331 171.054 136.09 175.808C135.289 176.976 134.446 178.115 133.563 179.224C132.876 177.977 132.045 176.815 131.085 175.763C127.717 172.064 123.202 169.643 118.821 167.218C114.44 164.792 109.991 162.188 106.896 158.255C105.507 156.484 104.513 154.437 103.979 152.252C103.277 149.286 103.545 146.193 105.276 143.717C107.792 140.117 112.808 138.849 117.073 139.889C121.343 140.93 124.917 143.895 127.689 147.3C126.782 143.116 131.197 139.077 135.467 139.444C139.737 139.817 143.16 143.545 144.296 147.673C145.437 151.795 144.697 156.213 143.472 160.319Z" fill="#0085FF"/>
        <path d="M226.014 7.25145C223.751 7.62064 221.587 8.44539 219.654 9.67565C217.72 10.9059 216.056 12.516 214.764 14.4083C213.454 16.362 212.581 18.5751 212.205 20.8967C211.829 23.2182 211.959 25.5935 212.585 27.8604C213.289 30.489 214.625 32.9057 216.478 34.8996C217.211 35.6876 218.39 34.5053 217.659 33.7194C216.199 32.1195 215.097 30.2285 214.423 28.1713C213.749 26.114 213.52 23.9373 213.75 21.7849C213.998 19.7163 214.683 17.7242 215.761 15.9408C216.839 14.1575 218.284 12.6239 220.001 11.4419C221.925 10.0944 224.135 9.21091 226.458 8.8609C227.517 8.70153 227.067 7.093 226.014 7.25145Z" fill="#3F3D56"/>
        <g opacity="0.2">
            <path d="M283.302 33.5805C282.541 34.5008 281.705 35.3568 280.803 36.1397C266.79 48.2794 255.405 61.5875 246.96 75.6912L243.915 80.7763L243.709 81.1268C242.991 80.5868 242.365 79.935 241.855 79.1963C239.906 76.3644 239.895 72.6424 240.374 69.2374C241.822 59.0282 247.019 49.7226 254.954 43.1318C262.889 36.5409 272.994 33.1362 283.302 33.5805Z" fill="black"/>
        </g>
        <g opacity="0.2">
            <path d="M136.09 175.808C135.289 176.976 134.446 178.115 133.563 179.224C132.876 177.977 132.045 176.815 131.085 175.763C127.717 172.064 123.202 169.643 118.821 167.218C114.44 164.792 109.991 162.188 106.896 158.255C105.507 156.484 104.513 154.437 103.979 152.252C113.828 153.616 122.878 158.414 129.532 165.799C132.196 168.797 134.405 172.169 136.09 175.808Z" fill="black"/>
        </g>
        <path d="M242.84 81.0043C244.07 81.0043 245.067 80.008 245.067 78.7789C245.067 77.5498 244.07 76.5535 242.84 76.5535C241.61 76.5535 240.613 77.5498 240.613 78.7789C240.613 80.008 241.61 81.0043 242.84 81.0043Z" fill="#3F3D56"/>
    </g>
    <defs>
        <clipPath id="clip0_293_14055">
            <rect width="355" height="363" fill="white" transform="translate(0.343201)"/>
        </clipPath>
    </defs>
</svg>
