<svg width="303" height="364" viewBox="0 0 303 364" fill="none" xmlns="http://www.w3.org/2000/svg">
    <g clip-path="url(#clip0_293_14118)">
        <path d="M2.99893 174.118C4.10605 175.967 5.6051 177.551 7.3905 178.758C9.17589 179.964 11.2042 180.765 13.3326 181.104C15.4609 181.442 17.6376 181.309 19.7092 180.715C21.7808 180.121 23.6969 179.08 25.3227 177.666L70.7646 203.728L69.071 176.559L26.1783 155.975C23.6207 153.401 20.2079 151.855 16.5866 151.629C12.9653 151.404 9.38708 152.514 6.52993 154.751C3.67277 156.987 1.73523 160.194 1.08444 163.763C0.43366 167.333 1.11485 171.017 2.99893 174.118Z" fill="#FFB8B8"/>
        <path d="M134.558 278.524C121.078 297.391 121.56 328.954 125.321 363.5H189.053L191.824 357.034L195.518 363.5H255.556C255.556 363.5 250.938 275.753 242.625 272.982C234.312 270.211 134.558 278.524 134.558 278.524Z" fill="#2F2E41"/>
        <path d="M189.053 81.4104C206.907 81.4104 221.381 66.9368 221.381 49.0826C221.381 31.2285 206.907 16.7549 189.053 16.7549C171.199 16.7549 156.725 31.2285 156.725 49.0826C156.725 66.9368 171.199 81.4104 189.053 81.4104Z" fill="#FFB8B8"/>
        <path d="M212.418 89.7978L218.74 101.915L262.466 121.407L250.972 232.638L246.135 244.156L248.749 254.159L242.447 261.542C248.772 267.265 249.576 273.256 246.135 279.453L225.999 284.066C225.999 284.066 114.038 294.022 123.474 276.677C133.784 257.725 136.409 201.755 113.649 171.846C94.3267 146.454 109.161 113.505 109.161 113.505L154.995 99.8074L171.853 89.7978L212.418 89.7978Z" fill="#3F3D56"/>
        <path d="M203.405 1.72756C203.557 1.40614 203.802 1.13746 204.107 0.956026C204.413 0.774595 204.766 0.688694 205.121 0.70936C190.321 -0.175948 174.731 1.54906 162.349 9.70499C159.35 11.6809 156.522 14.0377 153.257 15.4711C153.103 15.5403 152.97 15.6482 152.87 15.7843C152.77 15.9204 152.707 16.08 152.686 16.2477C152.666 16.4154 152.69 16.5855 152.755 16.7414C152.82 16.8973 152.924 17.0337 153.057 17.1374L153.416 17.4186C153.557 17.5295 153.666 17.6771 153.729 17.8453C153.792 18.0135 153.809 18.1959 153.776 18.3726C153.743 18.5493 153.662 18.7136 153.542 18.8476C153.422 18.9815 153.268 19.0801 153.096 19.1325C152.917 19.1872 152.757 19.2919 152.635 19.4344C152.513 19.5768 152.435 19.7511 152.409 19.9367C152.383 20.1223 152.411 20.3114 152.489 20.4818C152.566 20.6522 152.692 20.7968 152.849 20.8985L155.596 22.6743C155.735 22.7621 155.849 22.8834 155.928 23.0268C156.008 23.1702 156.05 23.3313 156.051 23.4952C156.051 23.6591 156.011 23.8206 155.933 23.9649C155.856 24.1092 155.743 24.2316 155.605 24.321C155.373 24.4647 155.128 24.5886 154.875 24.6915C154.717 24.7507 154.577 24.8496 154.469 24.9786C154.36 25.1075 154.287 25.2623 154.256 25.4278C154.225 25.5934 154.237 25.7642 154.291 25.9238C154.344 26.0835 154.439 26.2265 154.564 26.3391C155.754 27.3983 156.666 28.7325 157.222 30.2253C158.138 32.6064 158.303 35.1996 158.457 37.746C159.404 34.0718 163.414 31.909 167.201 31.6892C170.989 31.4695 174.683 32.7192 178.369 33.6176C186.398 35.5687 194.737 35.8895 202.892 34.561C200.123 40.1183 202.459 46.747 204.809 52.4939L212.418 49.2325C222.868 43.3338 215.589 68.2865 211.682 71.7121C219.659 74.4776 240.538 43.7833 233.821 32.1402C230.327 26.0837 232.807 18.2722 225.938 12.528C222.572 8.98397 215.85 10.5592 212.418 7.61366C211.067 6.45436 213.126 3.35283 211.27 2.6769C210.653 2.4524 203.507 1.50129 203.405 1.72756Z" fill="#2F2E41"/>
        <path d="M148.647 102.937C142.715 129.272 127.5 190.763 112.064 203.623C111.085 204.547 109.911 205.24 108.629 205.651C54.3718 218.869 36.9867 185.152 36.9867 185.152C36.9867 185.152 51.527 178.067 51.8958 164.217L81.2186 173.315L106.78 115.791L110.542 112.282L110.563 112.261L148.647 102.937Z" fill="#3F3D56"/>
        <path d="M264.332 346.135C265.886 344.641 267.093 342.825 267.869 340.815C268.645 338.804 268.97 336.648 268.823 334.498C268.675 332.348 268.058 330.256 267.015 328.371C265.971 326.485 264.527 324.851 262.784 323.584L277.994 273.455L251.896 281.198L241.453 327.614C239.519 330.683 238.777 334.356 239.369 337.935C239.961 341.515 241.846 344.753 244.666 347.036C247.486 349.319 251.046 350.488 254.67 350.322C258.295 350.156 261.733 348.666 264.332 346.135Z" fill="#FFB8B8"/>
        <path d="M250.411 118.603L262.466 121.407C262.466 121.407 312.295 218.357 300.288 236.83C288.28 255.303 273.57 316.462 273.57 316.462C273.57 316.462 251.814 312.137 243.501 301.053L258.723 228.517L243.021 167.556L250.411 118.603Z" fill="#3F3D56"/>
        <path d="M21.6962 262.57L22.1291 106.426C22.1414 103.266 23.4068 100.24 25.6477 98.0111C27.8886 95.7826 30.922 94.534 34.0824 94.5392L152.006 94.8661C155.166 94.8785 158.192 96.1439 160.421 98.3848C162.649 100.626 163.898 103.659 163.893 106.819L163.46 262.963C163.448 266.124 162.182 269.15 159.941 271.379C157.7 273.607 154.667 274.856 151.507 274.851L33.5834 274.524C30.423 274.511 27.3966 273.246 25.1681 271.005C22.9396 268.764 21.691 265.731 21.6962 262.57Z" fill="#E6E6E6"/>
        <path d="M30.8724 215.433L31.1507 115.05C31.1622 112.09 32.3473 109.256 34.446 107.169C36.5447 105.082 39.3855 103.912 42.3453 103.917L143.69 104.198C146.65 104.21 149.485 105.395 151.572 107.493C153.659 109.592 154.829 112.433 154.824 115.393L154.439 254.34C154.427 257.299 153.242 260.134 151.143 262.221C149.044 264.308 146.203 265.477 143.243 265.472L80.4621 265.298C67.2782 265.247 54.6531 259.968 45.3564 250.62C36.0597 241.272 30.8508 228.617 30.8724 215.433Z" fill="white"/>
        <path d="M132.078 148.012H53.0548C51.7973 148.012 50.5913 147.512 49.7021 146.623C48.8129 145.734 48.3134 144.528 48.3134 143.27C48.3134 142.013 48.8129 140.807 49.7021 139.917C50.5913 139.028 51.7973 138.529 53.0548 138.529H132.078C133.335 138.529 134.541 139.028 135.431 139.917C136.32 140.807 136.819 142.013 136.819 143.27C136.819 144.528 136.32 145.734 135.431 146.623C134.541 147.512 133.335 148.012 132.078 148.012Z" fill="#0085FF"/>
        <path d="M70.4399 126.148H53.0548C51.7973 126.148 50.5913 125.649 49.7021 124.76C48.8129 123.871 48.3134 122.665 48.3134 121.407C48.3134 120.15 48.8129 118.944 49.7021 118.054C50.5913 117.165 51.7973 116.666 53.0548 116.666H70.4399C71.6974 116.666 72.9034 117.165 73.7925 118.054C74.6817 118.944 75.1813 120.15 75.1813 121.407C75.1813 122.665 74.6817 123.871 73.7925 124.76C72.9034 125.649 71.6974 126.148 70.4399 126.148Z" fill="#0085FF"/>
        <path d="M132.078 169.875H53.0548C51.7973 169.875 50.5913 169.375 49.7021 168.486C48.8129 167.597 48.3134 166.391 48.3134 165.133C48.3134 163.876 48.8129 162.67 49.7021 161.781C50.5913 160.891 51.7973 160.392 53.0548 160.392H132.078C133.335 160.392 134.541 160.891 135.431 161.781C136.32 162.67 136.819 163.876 136.819 165.133C136.819 166.391 136.32 167.597 135.431 168.486C134.541 169.375 133.335 169.875 132.078 169.875Z" fill="#0085FF"/>
        <path d="M132.078 191.738H53.0548C51.7973 191.738 50.5913 191.238 49.7021 190.349C48.8129 189.46 48.3134 188.254 48.3134 186.996C48.3134 185.739 48.8129 184.533 49.7021 183.644C50.5913 182.754 51.7973 182.255 53.0548 182.255H132.078C133.335 182.255 134.541 182.754 135.431 183.644C136.32 184.533 136.819 185.739 136.819 186.996C136.819 188.254 136.32 189.46 135.431 190.349C134.541 191.238 133.335 191.738 132.078 191.738Z" fill="#0085FF"/>
        <path d="M125.684 249.346C136.103 249.346 144.55 240.899 144.55 230.48C144.55 220.061 136.103 211.614 125.684 211.614C115.264 211.614 106.818 220.061 106.818 230.48C106.818 240.899 115.264 249.346 125.684 249.346Z" fill="#0085FF"/>
        <path d="M123.11 240.299C122.784 240.299 122.463 240.223 122.172 240.077C121.88 239.932 121.627 239.72 121.431 239.459L116.285 232.597C116.119 232.376 115.998 232.125 115.929 231.858C115.861 231.591 115.845 231.313 115.884 231.04C115.923 230.767 116.015 230.504 116.156 230.267C116.296 230.029 116.482 229.822 116.703 229.657C116.923 229.491 117.175 229.371 117.442 229.302C117.709 229.234 117.987 229.219 118.26 229.258C118.533 229.297 118.796 229.39 119.033 229.531C119.27 229.671 119.477 229.858 119.642 230.078L123.01 234.568L131.658 221.595C131.811 221.365 132.007 221.167 132.236 221.013C132.465 220.859 132.722 220.751 132.993 220.697C133.264 220.642 133.543 220.641 133.814 220.695C134.084 220.748 134.342 220.855 134.572 221.008C134.802 221.161 134.999 221.358 135.152 221.588C135.306 221.817 135.413 222.075 135.466 222.346C135.52 222.616 135.52 222.895 135.466 223.166C135.411 223.437 135.304 223.694 135.15 223.923L124.857 239.364C124.67 239.644 124.42 239.874 124.126 240.037C123.832 240.199 123.504 240.289 123.169 240.298C123.149 240.299 123.13 240.299 123.11 240.299Z" fill="white"/>
        <path d="M85.4543 58.1885C90.4005 58.1885 94.4102 54.1788 94.4102 49.2325C94.4102 44.2863 90.4005 40.2766 85.4543 40.2766C80.508 40.2766 76.4983 44.2863 76.4983 49.2325C76.4983 54.1788 80.508 58.1885 85.4543 58.1885Z" fill="#F2F2F2"/>
        <path d="M52.7914 315.804C57.7376 315.804 61.7473 311.794 61.7473 306.848C61.7473 301.902 57.7376 297.892 52.7914 297.892C47.8451 297.892 43.8354 301.902 43.8354 306.848C43.8354 311.794 47.8451 315.804 52.7914 315.804Z" fill="#F2F2F2"/>
        <path d="M258.779 92.9587C263.725 92.9587 267.734 88.949 267.734 84.0027C267.734 79.0565 263.725 75.0468 258.779 75.0468C253.832 75.0468 249.823 79.0565 249.823 84.0027C249.823 88.949 253.832 92.9587 258.779 92.9587Z" fill="#F2F2F2"/>
    </g>
    <defs>
        <clipPath id="clip0_293_14118">
            <rect width="301.31" height="363" fill="white" transform="translate(0.844849 0.5)"/>
        </clipPath>
    </defs>
</svg>
