<svg width="453" height="508" viewBox="0 0 453 508" fill="none" xmlns="http://www.w3.org/2000/svg">
<g clip-path="url(#clip0_274_13957)">
<path d="M77.9989 246.118C79.106 247.967 80.6051 249.551 82.3905 250.758C84.1759 251.964 86.2042 252.765 88.3326 253.104C90.4609 253.442 92.6376 253.309 94.7092 252.715C96.7808 252.121 98.6969 251.08 100.323 249.666L145.765 275.728L144.071 248.559L101.178 227.975C98.6207 225.401 95.2079 223.855 91.5866 223.629C87.9653 223.404 84.3871 224.514 81.5299 226.751C78.6728 228.987 76.7352 232.194 76.0844 235.763C75.4337 239.333 76.1148 243.017 77.9989 246.118Z" fill="#FFB8B8"/>
<path d="M209.558 350.524C196.078 369.391 196.56 400.954 200.321 435.5H264.053L266.824 429.034L270.518 435.5H330.556C330.556 435.5 325.938 347.753 317.625 344.982C309.312 342.211 209.558 350.524 209.558 350.524Z" fill="#2F2E41"/>
<path d="M264.053 153.41C281.907 153.41 296.381 138.937 296.381 121.083C296.381 103.229 281.907 88.7549 264.053 88.7549C246.199 88.7549 231.725 103.229 231.725 121.083C231.725 138.937 246.199 153.41 264.053 153.41Z" fill="#FFB8B8"/>
<path d="M287.418 161.798L293.74 173.915L337.466 193.407L325.972 304.638L321.135 316.156L323.749 326.159L317.447 333.542C323.772 339.265 324.576 345.256 321.135 351.453L300.999 356.066C300.999 356.066 189.038 366.022 198.474 348.677C208.784 329.725 211.409 273.755 188.649 243.846C169.327 218.454 184.161 185.505 184.161 185.505L229.995 171.807L246.853 161.798L287.418 161.798Z" fill="#3F3D56"/>
<path d="M278.405 73.7276C278.557 73.4061 278.802 73.1375 279.107 72.956C279.413 72.7746 279.766 72.6887 280.121 72.7094C265.321 71.8241 249.731 73.5491 237.349 81.705C234.35 83.6809 231.522 86.0377 228.257 87.4711C228.103 87.5403 227.97 87.6482 227.87 87.7843C227.77 87.9204 227.707 88.08 227.686 88.2477C227.666 88.4154 227.69 88.5855 227.755 88.7414C227.82 88.8973 227.924 89.0337 228.057 89.1374L228.416 89.4186C228.557 89.5295 228.666 89.6771 228.729 89.8453C228.792 90.0135 228.809 90.1959 228.776 90.3726C228.743 90.5493 228.662 90.7136 228.542 90.8476C228.422 90.9815 228.268 91.0801 228.096 91.1325C227.917 91.1872 227.757 91.2919 227.635 91.4344C227.513 91.5768 227.435 91.7511 227.409 91.9367C227.383 92.1223 227.411 92.3114 227.489 92.4818C227.566 92.6522 227.692 92.7968 227.849 92.8985L230.596 94.6743C230.735 94.7621 230.849 94.8834 230.928 95.0268C231.008 95.1702 231.05 95.3313 231.051 95.4952C231.051 95.6591 231.011 95.8206 230.933 95.9649C230.856 96.1092 230.743 96.2316 230.605 96.321C230.373 96.4647 230.128 96.5886 229.875 96.6915C229.717 96.7507 229.577 96.8496 229.469 96.9786C229.36 97.1075 229.287 97.2623 229.256 97.4278C229.225 97.5934 229.237 97.7642 229.291 97.9238C229.344 98.0835 229.439 98.2265 229.564 98.3391C230.754 99.3983 231.666 100.732 232.222 102.225C233.138 104.606 233.303 107.2 233.457 109.746C234.404 106.072 238.414 103.909 242.201 103.689C245.989 103.469 249.683 104.719 253.369 105.618C261.398 107.569 269.737 107.889 277.892 106.561C275.123 112.118 277.459 118.747 279.809 124.494L287.418 121.233C297.868 115.334 290.589 140.286 286.682 143.712C294.659 146.478 315.538 115.783 308.821 104.14C305.327 98.0837 307.807 90.2722 300.938 84.528C297.572 80.984 290.85 82.5592 287.418 79.6137C286.067 78.4544 288.126 75.3528 286.27 74.6769C285.653 74.4524 278.507 73.5013 278.405 73.7276Z" fill="#2F2E41"/>
<path d="M223.647 174.937C217.715 201.272 202.5 262.763 187.064 275.623C186.085 276.547 184.911 277.24 183.629 277.651C129.372 290.869 111.987 257.152 111.987 257.152C111.987 257.152 126.527 250.067 126.896 236.217L156.219 245.315L181.78 187.791L185.542 184.282L185.563 184.261L223.647 174.937Z" fill="#3F3D56"/>
<path d="M339.332 418.135C340.886 416.641 342.093 414.825 342.869 412.815C343.645 410.804 343.97 408.648 343.823 406.498C343.675 404.348 343.058 402.256 342.015 400.371C340.971 398.485 339.527 396.851 337.784 395.584L352.994 345.455L326.896 353.198L316.453 399.614C314.519 402.683 313.777 406.356 314.369 409.935C314.961 413.515 316.846 416.753 319.666 419.036C322.486 421.319 326.046 422.488 329.67 422.322C333.295 422.156 336.733 420.666 339.332 418.135Z" fill="#FFB8B8"/>
<path d="M325.411 190.603L337.466 193.407C337.466 193.407 387.295 290.357 375.288 308.83C363.28 327.303 348.57 388.462 348.57 388.462C348.57 388.462 326.814 384.137 318.501 373.053L333.723 300.517L318.021 239.556L325.411 190.603Z" fill="#3F3D56"/>
<path d="M96.6962 334.57L97.1291 178.426C97.1414 175.266 98.4068 172.24 100.648 170.011C102.889 167.783 105.922 166.534 109.082 166.539L227.006 166.866C230.166 166.878 233.192 168.144 235.421 170.385C237.649 172.626 238.898 175.659 238.893 178.819L238.46 334.963C238.448 338.124 237.182 341.15 234.941 343.379C232.7 345.607 229.667 346.856 226.507 346.851L108.583 346.524C105.423 346.511 102.397 345.246 100.168 343.005C97.9396 340.764 96.691 337.731 96.6962 334.57Z" fill="#E6E6E6"/>
<path d="M105.872 287.433L106.151 187.05C106.162 184.09 107.347 181.256 109.446 179.169C111.545 177.082 114.386 175.912 117.345 175.917L218.69 176.198C221.65 176.21 224.485 177.395 226.572 179.493C228.659 181.592 229.829 184.433 229.824 187.393L229.439 326.34C229.427 329.299 228.242 332.134 226.143 334.221C224.044 336.308 221.203 337.477 218.243 337.472L155.462 337.298C142.278 337.247 129.653 331.968 120.356 322.62C111.06 313.272 105.851 300.617 105.872 287.433Z" fill="white"/>
<path d="M207.078 220.012H128.055C126.797 220.012 125.591 219.512 124.702 218.623C123.813 217.734 123.313 216.528 123.313 215.27C123.313 214.013 123.813 212.807 124.702 211.917C125.591 211.028 126.797 210.529 128.055 210.529H207.078C208.335 210.529 209.541 211.028 210.431 211.917C211.32 212.807 211.819 214.013 211.819 215.27C211.819 216.528 211.32 217.734 210.431 218.623C209.541 219.512 208.335 220.012 207.078 220.012Z" fill="#0085FF"/>
<path d="M145.44 198.148H128.055C126.797 198.148 125.591 197.649 124.702 196.76C123.813 195.871 123.313 194.665 123.313 193.407C123.313 192.15 123.813 190.944 124.702 190.054C125.591 189.165 126.797 188.666 128.055 188.666H145.44C146.697 188.666 147.903 189.165 148.793 190.054C149.682 190.944 150.181 192.15 150.181 193.407C150.181 194.665 149.682 195.871 148.793 196.76C147.903 197.649 146.697 198.148 145.44 198.148Z" fill="#0085FF"/>
<path d="M207.078 241.875H128.055C126.797 241.875 125.591 241.375 124.702 240.486C123.813 239.597 123.313 238.391 123.313 237.133C123.313 235.876 123.813 234.67 124.702 233.781C125.591 232.891 126.797 232.392 128.055 232.392H207.078C208.335 232.392 209.541 232.891 210.431 233.781C211.32 234.67 211.819 235.876 211.819 237.133C211.819 238.391 211.32 239.597 210.431 240.486C209.541 241.375 208.335 241.875 207.078 241.875Z" fill="#0085FF"/>
<path d="M207.078 263.738H128.055C126.797 263.738 125.591 263.238 124.702 262.349C123.813 261.46 123.313 260.254 123.313 258.996C123.313 257.739 123.813 256.533 124.702 255.644C125.591 254.754 126.797 254.255 128.055 254.255H207.078C208.335 254.255 209.541 254.754 210.431 255.644C211.32 256.533 211.819 257.739 211.819 258.996C211.819 260.254 211.32 261.46 210.431 262.349C209.541 263.238 208.335 263.738 207.078 263.738Z" fill="#0085FF"/>
<path d="M200.684 321.346C211.103 321.346 219.55 312.899 219.55 302.48C219.55 292.061 211.103 283.614 200.684 283.614C190.264 283.614 181.818 292.061 181.818 302.48C181.818 312.899 190.264 321.346 200.684 321.346Z" fill="#0085FF"/>
<path d="M198.11 312.299C197.784 312.299 197.463 312.223 197.172 312.077C196.88 311.932 196.627 311.72 196.431 311.459L191.285 304.597C191.119 304.376 190.998 304.125 190.929 303.858C190.861 303.591 190.845 303.313 190.884 303.04C190.923 302.767 191.015 302.504 191.156 302.267C191.296 302.029 191.482 301.822 191.703 301.657C191.923 301.491 192.175 301.371 192.442 301.302C192.709 301.234 192.987 301.219 193.26 301.258C193.533 301.297 193.796 301.39 194.033 301.531C194.27 301.671 194.477 301.858 194.642 302.078L198.01 306.568L206.658 293.595C206.811 293.365 207.007 293.167 207.236 293.013C207.465 292.859 207.722 292.751 207.993 292.697C208.264 292.642 208.543 292.641 208.814 292.695C209.084 292.748 209.342 292.855 209.572 293.008C209.802 293.161 209.999 293.358 210.152 293.588C210.306 293.817 210.413 294.075 210.466 294.346C210.52 294.616 210.52 294.895 210.466 295.166C210.411 295.437 210.304 295.694 210.15 295.923L199.857 311.364C199.67 311.644 199.42 311.874 199.126 312.037C198.832 312.199 198.504 312.289 198.169 312.298C198.149 312.299 198.13 312.299 198.11 312.299Z" fill="white"/>
<path d="M160.454 130.189C165.401 130.189 169.41 126.179 169.41 121.233C169.41 116.286 165.401 112.277 160.454 112.277C155.508 112.277 151.498 116.286 151.498 121.233C151.498 126.179 155.508 130.189 160.454 130.189Z" fill="#F2F2F2"/>
<path d="M127.791 387.804C132.738 387.804 136.747 383.794 136.747 378.848C136.747 373.902 132.738 369.892 127.791 369.892C122.845 369.892 118.835 373.902 118.835 378.848C118.835 383.794 122.845 387.804 127.791 387.804Z" fill="#F2F2F2"/>
<path d="M333.779 164.959C338.725 164.959 342.734 160.949 342.734 156.003C342.734 151.057 338.725 147.047 333.779 147.047C328.832 147.047 324.823 151.057 324.823 156.003C324.823 160.949 328.832 164.959 333.779 164.959Z" fill="#F2F2F2"/>
</g>
<defs>
<clipPath id="clip0_274_13957">
<rect width="301.31" height="363" fill="white" transform="translate(75.8448 72.5)"/>
</clipPath>
</defs>
</svg>
