<svg width="97" height="16" viewBox="0 0 97 16" fill="none" xmlns="http://www.w3.org/2000/svg">
    <path d="M3.18 5.54C3.54 5.00667 4.03333 4.57333 4.66 4.24C5.3 3.90667 6.02667 3.74 6.84 3.74C7.78667 3.74 8.64 3.97333 9.4 4.44C10.1733 4.90667 10.78 5.57333 11.22 6.44C11.6733 7.29333 11.9 8.28667 11.9 9.42C11.9 10.5533 11.6733 11.56 11.22 12.44C10.78 13.3067 10.1733 13.98 9.4 14.46C8.64 14.94 7.78667 15.18 6.84 15.18C6.01333 15.18 5.28667 15.02 4.66 14.7C4.04667 14.3667 3.55333 13.94 3.18 13.42V15H0.38V0.2H3.18V5.54ZM9.04 9.42C9.04 8.75333 8.9 8.18 8.62 7.7C8.35333 7.20667 7.99333 6.83333 7.54 6.58C7.1 6.32667 6.62 6.2 6.1 6.2C5.59333 6.2 5.11333 6.33333 4.66 6.6C4.22 6.85333 3.86 7.22667 3.58 7.72C3.31333 8.21333 3.18 8.79333 3.18 9.46C3.18 10.1267 3.31333 10.7067 3.58 11.2C3.86 11.6933 4.22 12.0733 4.66 12.34C5.11333 12.5933 5.59333 12.72 6.1 12.72C6.62 12.72 7.1 12.5867 7.54 12.32C7.99333 12.0533 8.35333 11.6733 8.62 11.18C8.9 10.6867 9.04 10.1 9.04 9.42ZM24.2347 9.22C24.2347 9.62 24.208 9.98 24.1547 10.3H16.0547C16.1214 11.1 16.4014 11.7267 16.8947 12.18C17.388 12.6333 17.9947 12.86 18.7147 12.86C19.7547 12.86 20.4947 12.4133 20.9347 11.52H23.9547C23.6347 12.5867 23.0214 13.4667 22.1147 14.16C21.208 14.84 20.0947 15.18 18.7747 15.18C17.708 15.18 16.748 14.9467 15.8947 14.48C15.0547 14 14.3947 13.3267 13.9147 12.46C13.448 11.5933 13.2147 10.5933 13.2147 9.46C13.2147 8.31333 13.448 7.30667 13.9147 6.44C14.3814 5.57333 15.0347 4.90667 15.8747 4.44C16.7147 3.97333 17.6814 3.74 18.7747 3.74C19.828 3.74 20.768 3.96667 21.5947 4.42C22.4347 4.87333 23.0814 5.52 23.5347 6.36C24.0014 7.18667 24.2347 8.14 24.2347 9.22ZM21.3347 8.42C21.3214 7.7 21.0614 7.12667 20.5547 6.7C20.048 6.26 19.428 6.04 18.6947 6.04C18.0014 6.04 17.4147 6.25333 16.9347 6.68C16.468 7.09333 16.1814 7.67333 16.0747 8.42H21.3347ZM29.5384 6.22V11.58C29.5384 11.9533 29.6251 12.2267 29.7984 12.4C29.9851 12.56 30.2918 12.64 30.7184 12.64H32.0184V15H30.2584C27.8984 15 26.7184 13.8533 26.7184 11.56V6.22H25.3984V3.92H26.7184V1.18H29.5384V3.92H32.0184V6.22H29.5384ZM37.2923 6.22V11.58C37.2923 11.9533 37.379 12.2267 37.5523 12.4C37.739 12.56 38.0457 12.64 38.4723 12.64H39.7723V15H38.0123C35.6523 15 34.4723 13.8533 34.4723 11.56V6.22H33.1523V3.92H34.4723V1.18H37.2923V3.92H39.7723V6.22H37.2923ZM52.0863 9.22C52.0863 9.62 52.0596 9.98 52.0063 10.3H43.9063C43.9729 11.1 44.2529 11.7267 44.7463 12.18C45.2396 12.6333 45.8463 12.86 46.5663 12.86C47.6063 12.86 48.3463 12.4133 48.7863 11.52H51.8063C51.4863 12.5867 50.8729 13.4667 49.9663 14.16C49.0596 14.84 47.9463 15.18 46.6263 15.18C45.5596 15.18 44.5996 14.9467 43.7463 14.48C42.9063 14 42.2463 13.3267 41.7663 12.46C41.2996 11.5933 41.0662 10.5933 41.0662 9.46C41.0662 8.31333 41.2996 7.30667 41.7663 6.44C42.2329 5.57333 42.8863 4.90667 43.7263 4.44C44.5663 3.97333 45.5329 3.74 46.6263 3.74C47.6796 3.74 48.6196 3.96667 49.4463 4.42C50.2863 4.87333 50.9329 5.52 51.3863 6.36C51.8529 7.18667 52.0863 8.14 52.0863 9.22ZM49.1863 8.42C49.1729 7.7 48.9129 7.12667 48.4063 6.7C47.8996 6.26 47.2796 6.04 46.5463 6.04C45.8529 6.04 45.2663 6.25333 44.7863 6.68C44.3196 7.09333 44.0329 7.67333 43.9263 8.42H49.1863ZM56.93 5.64C57.29 5.05333 57.7567 4.59333 58.33 4.26C58.9167 3.92667 59.5833 3.76 60.33 3.76V6.7H59.59C58.71 6.7 58.0433 6.90667 57.59 7.32C57.15 7.73333 56.93 8.45333 56.93 9.48V15H54.13V3.92H56.93V5.64Z" fill="#414141"/>
    <path d="M65.0159 3.3V6.8H69.7159V9.02H65.0159V12.72H70.3159V15H62.2159V1.02H70.3159V3.3H65.0159ZM72.1405 9.42C72.1405 8.3 72.3605 7.30667 72.8005 6.44C73.2538 5.57333 73.8671 4.90667 74.6405 4.44C75.4138 3.97333 76.2738 3.74 77.2205 3.74C77.9405 3.74 78.6271 3.9 79.2805 4.22C79.9338 4.52667 80.4538 4.94 80.8405 5.46V0.2H83.6805V15H80.8405V13.36C80.4938 13.9067 80.0071 14.3467 79.3805 14.68C78.7538 15.0133 78.0271 15.18 77.2005 15.18C76.2671 15.18 75.4138 14.94 74.6405 14.46C73.8671 13.98 73.2538 13.3067 72.8005 12.44C72.3605 11.56 72.1405 10.5533 72.1405 9.42ZM80.8605 9.46C80.8605 8.78 80.7271 8.2 80.4605 7.72C80.1938 7.22667 79.8338 6.85333 79.3805 6.6C78.9271 6.33333 78.4405 6.2 77.9205 6.2C77.4005 6.2 76.9205 6.32667 76.4805 6.58C76.0405 6.83333 75.6805 7.20667 75.4005 7.7C75.1338 8.18 75.0005 8.75333 75.0005 9.42C75.0005 10.0867 75.1338 10.6733 75.4005 11.18C75.6805 11.6733 76.0405 12.0533 76.4805 12.32C76.9338 12.5867 77.4138 12.72 77.9205 12.72C78.4405 12.72 78.9271 12.5933 79.3805 12.34C79.8338 12.0733 80.1938 11.7 80.4605 11.22C80.7271 10.7267 80.8605 10.14 80.8605 9.46ZM96.8752 3.92V15H94.0552V13.6C93.6952 14.08 93.2218 14.46 92.6352 14.74C92.0618 15.0067 91.4352 15.14 90.7552 15.14C89.8885 15.14 89.1218 14.96 88.4552 14.6C87.7885 14.2267 87.2618 13.6867 86.8752 12.98C86.5018 12.26 86.3152 11.4067 86.3152 10.42V3.92H89.1152V10.02C89.1152 10.9 89.3352 11.58 89.7752 12.06C90.2152 12.5267 90.8152 12.76 91.5752 12.76C92.3485 12.76 92.9552 12.5267 93.3952 12.06C93.8352 11.58 94.0552 10.9 94.0552 10.02V3.92H96.8752Z" fill="#0085FF"/>
</svg>
